<?xml version="1.0" encoding="UTF-8" standalone="no"?>
<svg
   xmlns:dc="http://purl.org/dc/elements/1.1/"
   xmlns:cc="http://creativecommons.org/ns#"
   xmlns:rdf="http://www.w3.org/1999/02/22-rdf-syntax-ns#"
   xmlns:svg="http://www.w3.org/2000/svg"
   xmlns="http://www.w3.org/2000/svg"
   viewBox="0 0 665 298"
   height="298"
   width="665"
   id="svg10"
   version="1.1">
  <metadata
     id="metadata16">
    <rdf:RDF>
      <cc:Work
         rdf:about="">
        <dc:format>image/svg+xml</dc:format>
        <dc:type
           rdf:resource="http://purl.org/dc/dcmitype/StillImage" />
        <dc:title></dc:title>
      </cc:Work>
    </rdf:RDF>
  </metadata>
  <defs
     id="defs14" />
  <path
     id="path20"
     d="m 43.737349,254.93866 c 0.340747,-1.35764 -0.706073,-5.97508 0.347345,-6.25056 C 45.138112,248.41263 46,247.40793 46,246.45545 c 0,-0.95248 1.810019,-3.69543 4.022263,-6.09543 2.212245,-2.4 4.568566,-5.60033 5.236268,-7.11183 0.667703,-1.5115 2.457684,-4.02031 3.977737,-5.57511 C 60.756321,226.11827 62,224.31685 62,223.66992 c 0,-0.64693 2.1375,-3.49125 4.75,-6.32071 2.6125,-2.82946 6.1,-7.46315 7.75,-10.29709 1.65,-2.83394 5.371259,-8.16751 8.269464,-11.85237 2.898206,-3.68486 5.53819,-7.48725 5.866632,-8.44975 C 88.964538,185.7875 89.630779,185 90.116631,185 90.602484,185 91,184.406 91,183.68 c 0,-0.726 1.575,-3.16004 3.5,-5.40897 1.925,-2.24893 3.5,-4.39169 3.5,-4.7617 0,-0.67953 6.50508,-9.158 8.44884,-11.01189 0.57814,-0.5514 1.91414,-2.5764 2.96889,-4.5 1.05475,-1.92359 2.96725,-4.5713 4.25,-5.8838 1.28275,-1.3125 2.33227,-2.79422 2.33227,-3.2927 0,-0.49849 1.72755,-3.24962 3.83899,-6.11364 2.11144,-2.86401 4.02394,-5.70658 4.25,-6.31681 0.22606,-0.61023 1.65862,-2.63523 3.18347,-4.5 1.52485,-1.86477 5.12485,-6.57642 8,-10.47034 2.87515,-3.89392 6.01504,-7.86356 6.97754,-8.82143 0.9625,-0.95787 1.76824,-2.27193 1.79053,-2.92015 0.0613,-1.78267 8.11414,-11.747258 10.95947,-13.561261 2.25819,-1.439682 2.37994,-1.440994 1.25868,-0.01357 -0.68273,0.869152 -1.03905,1.782549 -0.79183,2.029773 0.24722,0.247224 -0.88363,2.005828 -2.513,3.907998 -1.62938,1.90217 -4.17529,5.37099 -5.65759,7.70849 -1.4823,2.3375 -3.05535,4.25 -3.49567,4.25 -0.44033,0 -0.80059,0.43093 -0.80059,0.95761 0,0.91033 -9.74855,16.19987 -11.95504,18.75018 -0.57473,0.66429 -1.04704,1.56429 -1.04959,2 -0.003,0.43572 -1.32225,2.19789 -2.93267,3.91594 -1.61042,1.71805 -3.74584,4.70522 -4.74537,6.63816 -0.99953,1.93294 -4.97275,8.17726 -8.82938,13.87627 -3.85662,5.69901 -8.30028,12.83684 -9.8748,15.86184 -1.57451,3.025 -4.805829,8.05493 -7.180704,11.17763 -2.374875,3.12269 -5.217277,7.39769 -6.31645,9.5 -1.099172,2.1023 -3.374933,5.26046 -5.057246,7.01814 C 83.376438,205.45344 82,207.29106 82,207.77938 c 0,0.48831 -1.758811,2.79298 -3.908469,5.12147 -2.149658,2.3285 -4.163798,5.25095 -4.475867,6.49433 -0.312069,1.24338 -1.691699,3.47384 -3.065844,4.95656 -1.374146,1.48273 -2.563916,3.02266 -2.643934,3.42207 -0.08002,0.3994 -0.541577,1.76798 -1.025687,3.04129 C 66.39609,232.0884 66,233.5509 66,234.0651 66,234.57929 65.580324,235 65.067388,235 c -0.512937,0 -1.205728,0.86051 -1.539535,1.91224 -0.333808,1.05174 -1.944943,3.59593 -3.580301,5.65376 -1.635358,2.05783 -2.790295,3.92459 -2.566526,4.14836 0.223769,0.22377 -0.717743,1.53145 -2.09225,2.90595 -1.718722,1.71873 -2.35524,3.25167 -2.038396,4.90914 -5.507098,5.60584 -10.591876,4.27754 -9.513031,0.40921 z M 329.47231,209.01482 c 1.44857,-0.77525 3.85498,-3.98467 5.57785,-7.43915 1.66658,-3.34162 3.63043,-7.20067 4.36412,-8.57567 0.73368,-1.375 2.15925,-4.3 3.16793,-6.5 1.00867,-2.2 2.55143,-5.125 3.42835,-6.5 1.4913,-2.33836 4.95347,-12.28459 5.66845,-16.28453 0.17544,-0.98148 -0.32591,-3.32797 -1.11412,-5.2144 -1.74394,-4.17384 -4.36086,-4.99715 -12.85975,-4.04583 -13.26928,1.48528 -15.50738,1.19509 -16.78941,-2.1769 -0.72865,-1.91648 -0.70584,-3.44358 0.0771,-5.16193 1.78161,-3.91021 -0.58021,-5.49837 -6.88694,-4.63097 -2.80823,0.38623 -5.10588,1.11001 -5.10588,1.6084 0,1.26572 -14.04119,1.13636 -17.7706,-0.16372 -1.68798,-0.58843 -3.31601,-1.71343 -3.61784,-2.5 -0.76413,-1.99128 -3.62491,-1.78606 -9.27865,0.66559 -6.52299,2.82858 -15.84399,2.20393 -18.43847,-1.23566 -1.19208,-1.58038 -1.4517,-2.81881 -0.83318,-3.97452 0.70919,-1.32512 0.35587,-1.81501 -1.67704,-2.32523 -1.41654,-0.35553 -3.09498,-0.21689 -3.72987,0.3081 -1.95462,1.61626 -12.01027,5.13056 -14.68184,5.1311 -3.36158,6.7e-4 -6.97251,-2.6341 -6.97251,-5.08759 0,-1.08607 -0.67665,-2.23434 -1.50368,-2.55169 -1.39593,-0.53567 -3.37926,0.30596 -13.99632,5.93938 -2.34985,1.24683 -6.47522,2.28251 -10,2.5105 -5.27769,0.34138 -6.31793,0.0931 -8.64091,-2.06215 -4.11803,-3.82073 -5.35885,-3.88774 -13.27712,-0.71712 -8.26592,3.30984 -9.39436,3.4674 -13.0157,1.81741 -5.20029,-2.36941 -4.49604,-7.91408 2.29366,-18.05826 2.55204,-3.81288 5.83976,-9.03794 7.30604,-11.61124 1.46628,-2.57331 3.26628,-5.33723 4,-6.14205 2.99429,-3.28446 9.34854,-15.520019 10.73616,-20.673226 1.22155,-4.536475 1.5488,-16.486261 0.55766,-20.363464 -0.85442,-3.342394 -1.27579,-6.027593 -1.37646,-8.771439 -0.0513,-1.397674 -1.03698,-2.705952 -2.56245,-3.401 l -2.47912,-1.129562 2.0144,-3.598999 c 1.10792,-1.97945 2.81281,-6.299 3.78864,-9.599 0.97584,-3.3 2.19747,-6 2.71473,-6 1.72231,0 1.61058,5.59144 -0.16592,8.302709 -2.86791,4.376993 -2.4021,14.344246 1.13084,24.197291 0.98544,2.748274 1.5902,7.494441 1.55357,12.192406 -0.0543,6.961929 -0.48815,8.608778 -4.569,17.342423 C 194.02906,97.842339 192,102.55576 192,103.00909 c 0,0.45333 -0.3375,0.97424 -0.75,1.15758 -0.97107,0.43159 -6.25,8.20538 -6.25,9.2038 0,0.41964 -1.06132,2.19545 -2.35849,3.94625 -4.0432,5.45716 -7.92553,13.50075 -7.30136,15.12731 0.64178,1.67246 5.17481,2.1498 6.10607,0.64298 0.31034,-0.50214 2.336,-1.21232 4.50145,-1.57817 2.16546,-0.36585 4.4682,-1.30501 5.11721,-2.08701 0.649,-0.78201 1.75009,-1.42183 2.44686,-1.42183 0.69677,0 2.54602,-1.6875 4.10946,-3.75 7.48559,-9.87505 21.13876,-20.32356 24.74748,-18.93876 4.51737,1.73347 0.16095,9.73449 -8.86778,16.28662 -2.19951,1.59618 -4.44951,3.22846 -5,3.6273 -5.53176,4.00781 -6.72336,5.49857 -6.06165,7.58343 0.96502,3.0405 7.42343,2.93421 14.22829,-0.23415 2.84215,-1.32331 5.42965,-2.14392 5.75,-1.82357 0.32035,0.32036 0.58246,0.14786 0.58246,-0.38331 0,-0.53118 1.51051,-1.51199 3.35669,-2.17958 1.84619,-0.66759 4.16593,-2.10799 5.15499,-3.20089 0.98906,-1.0929 2.25016,-1.98709 2.80244,-1.98709 0.55228,0 3.38823,-1.8 6.3021,-4 8.66113,-6.53921 11.6331,-4.49995 4.44863,3.05249 -6.96383,7.3205 -7.20816,13.43644 -0.43649,10.92584 5.30898,-1.96831 17.20839,-8.17758 19.16528,-10.0007 2.7751,-2.5854 6.56561,-2.93814 7.01936,-0.65323 0.19927,1.00343 -0.36577,2.62892 -1.25563,3.61221 -2.43715,2.69301 -3.60128,7.63856 -2.21786,9.42206 1.63712,2.11058 4.56085,2.20634 8.87837,0.29082 2.04484,-0.90722 4.34003,-1.64949 5.10043,-1.64949 1.14483,0 4.41563,-3.4429 6.70452,-7.05729 0.97578,-1.54086 6.21905,-3.78712 7.60159,-3.25659 2.05628,0.78907 1.66076,4.68162 -0.79262,7.80059 -1.63712,2.08125 -1.91608,3.1553 -1.13888,4.38486 1.36535,2.16003 15.13825,2.45476 25.97898,0.55592 13.03209,-2.28268 27.38618,-2.9454 28.42054,-1.31216 1.53628,2.42576 0.99301,3.45199 -2.49514,4.71333 -4.31634,1.5608 -8.79238,5.04668 -8.04109,6.26229 0.3164,0.51194 1.78318,0.85183 3.25953,0.7553 9.30387,-0.60829 18.28293,5.18706 20.02087,12.92208 0.51075,2.27319 0.78562,4.27611 0.61081,4.45091 -0.1748,0.17481 -0.56385,2.36736 -0.86455,4.87234 -0.3007,2.50498 -1.2268,6.48206 -2.058,8.83795 -0.83121,2.35588 -1.26279,4.68551 -0.95906,5.17695 C 357.86953,183.59792 357.61492,184 357,184 c -0.61492,0 -0.88969,0.36947 -0.6106,0.82104 0.59265,0.95893 -6.1632,14.3306 -7.78753,15.41365 -0.60603,0.40408 -0.74854,0.74158 -0.31669,0.75 0.43185,0.008 0.33669,0.85333 -0.21147,1.87758 -0.54816,1.02425 -1.26319,3.37514 -1.58895,5.22421 -9.48762,18.24847 -22.27799,3.77715 -17.01245,0.92834 z M 604.95819,195.79841 C 596.97457,190.88866 588.1051,184.59863 587,183.06286 c -1.26012,-1.75121 -9.89631,-6.90005 -13.5,-8.04862 -2.2,-0.70119 -4.45,-1.59641 -5,-1.98939 -2.84462,-2.0325 -11.4121,-2.93951 -26,-2.75254 -15.52091,0.19893 -16.16469,0.12484 -21.5,-2.47421 -3.025,-1.4736 -6.19374,-3.26851 -7.04165,-3.98869 -4.57906,-3.88924 -8.20336,-14.60077 -8.36944,-24.73561 -0.0825,-5.03303 -0.28671,-5.47923 -2.81888,-6.15816 -2.75493,-0.73865 -7.88249,0.45697 -14.98791,3.49482 -4.52726,1.93558 -4.78212,1.94684 -4.78212,0.21132 0,-0.75802 2.40278,-3.03309 5.33952,-5.05569 4.05582,-2.79336 6.70513,-3.81841 11.0198,-4.26373 5.62161,-0.5802 5.71988,-0.54463 9.51287,3.44263 3.89084,4.09012 5.12781,7.52297 5.12781,14.23079 0,5.61791 1.77938,9.61857 5.56096,12.50292 7.29373,5.5632 19.48623,8.05272 32.12088,6.55858 2.95971,-0.35001 7.51818,0.0687 11.81816,1.08543 8.97533,2.1223 24.75296,9.51685 30.34461,14.2217 2.38954,2.01058 4.68319,3.65559 5.09699,3.65559 0.41381,0 1.83373,0.95102 3.15539,2.11338 1.32166,1.16236 3.97175,3.29986 5.88911,4.75 6.62947,5.01403 9.0139,7.47465 9.0139,9.30192 0,3.01519 -3.05135,2.16203 -12.04181,-3.36689 z M 391.75,168.9199 c -2.12781,-1.23934 -2.29351,-5.22394 -0.2865,-6.88961 0.80493,-0.66803 3.30451,-1.36248 5.55462,-1.54322 2.25011,-0.18074 5.30403,-1.14631 6.78649,-2.14571 1.48247,-0.9994 3.43602,-2.27255 4.34124,-2.82923 4.92793,-3.03047 12.85683,-8.79477 12.87399,-9.35937 0.0109,-0.35902 2.26092,-1.98326 5,-3.60944 2.73909,-1.62617 4.98016,-3.27507 4.98016,-3.66422 0,-0.38915 2.27818,-2.10933 5.06262,-3.82261 2.78444,-1.71329 6.65444,-4.70689 8.6,-6.65244 1.94556,-1.94556 3.7842,-3.29057 4.08586,-2.9889 0.30166,0.30166 1.26916,-0.23268 2.15,-1.18743 0.88084,-0.95474 3.62652,-3.37407 6.10152,-5.37629 2.475,-2.00221 7.875,-6.89011 12,-10.862 4.125,-3.97189 10.5375,-9.663536 14.25,-12.648113 C 486.9625,92.35674 490,89.483981 490,88.957407 490,88.430833 490.51212,88 491.13804,88 c 1.55727,0 9.81256,-9.158646 9.83992,-10.916667 0.0121,-0.779166 0.33119,-1.107513 0.70905,-0.729659 0.37785,0.377854 2.32533,-0.912772 4.32772,-2.868058 2.44326,-2.385783 4.19074,-3.344001 5.31299,-2.913351 2.05204,0.787442 2.10555,2.455018 0.22331,6.959854 C 510.75409,79.439453 510.37384,81 510.70601,81 c 0.33218,0 -0.0883,0.7875 -0.93451,1.75 -0.84616,0.9625 -2.55567,3.775 -3.79891,6.25 -1.24324,2.475 -3.09567,5.088017 -4.11651,5.806704 -1.02085,0.718687 -1.86807,1.843687 -1.88273,2.5 -0.0214,0.959062 -5.69482,9.232736 -9.7326,14.193296 -0.44769,0.55 -2.90601,3.94152 -5.46294,7.53671 -2.55693,3.59519 -5.62584,7.42019 -6.8198,8.5 -1.86971,1.69096 -5.95801,8.45471 -5.95801,9.85703 0,0.26038 1.23365,0.61581 2.74145,0.78984 3.49109,0.40294 4.08732,3.15188 1.19745,5.52093 -3.90922,3.20468 -6.9389,6.36678 -6.9389,7.24217 0,1.25856 -6.25178,4.73007 -10.00145,5.55364 -3.68853,0.81013 -4.95863,-0.37995 -4.98324,-4.66928 -0.0145,-2.53435 2.62175,-8.68612 4.23916,-9.89206 0.41496,-0.3094 1.88417,-2.10974 3.26492,-4.00076 2.63153,-3.60404 5.6818,-7.2835 13.98061,-16.86441 2.75,-3.17486 7.925,-9.46998 11.5,-13.98917 3.575,-4.51919 7.0625,-8.829845 7.75,-9.579242 0.6875,-0.749398 1.25,-1.778973 1.25,-2.287947 0,-0.508973 1.13963,-2.155083 2.5325,-3.658023 l 2.53251,-2.732617 -3.28251,0.712227 c -1.80537,0.391724 -3.61311,1.218192 -4.01719,1.836594 -0.40408,0.618402 -0.74158,0.848301 -0.75,0.510886 -0.008,-0.337414 -7.22125,6.412586 -16.0285,15.000002 -18.77408,18.30546 -29.7427,28.41898 -35.98681,33.18134 -2.475,1.88768 -4.725,3.65714 -5,3.93214 -0.275,0.275 -2.75,2.29096 -5.5,4.47991 -2.75,2.18896 -6.35,5.22437 -8,6.74538 -1.65,1.521 -3.30536,2.76754 -3.67857,2.77008 -0.37322,0.003 -1.27322,0.57551 -2,1.27326 -0.72679,0.69774 -4.17852,3.39774 -7.67051,6 -5.47162,4.07748 -6.99186,4.72717 -11,4.70096 -2.55801,-0.0167 -5.43842,-0.48908 -6.40092,-1.04969 z M 156,93.15301 c 0,-1.76152 3.81375,-5.263389 4.50828,-4.139607 0.37821,0.611943 -0.10118,1.984268 -1.06531,3.04961 C 157.60982,94.088626 156,94.598272 156,93.15301 Z m 8,-9.545194 c 0,-1.627461 4.03262,-7.406357 5.58362,-8.00153 0.84873,-0.325688 1.26306,-1.045339 0.92075,-1.599223 C 170.16205,73.453178 170.35852,73 170.94098,73 c 1.62078,0 1.25885,2.986086 -0.44098,3.638374 -0.825,0.316582 -1.5,0.997098 -1.5,1.512259 0,0.51516 -1.125,2.149917 -2.5,3.632793 -1.375,1.482875 -2.5,2.303851 -2.5,1.82439 z m 9.41212,-11.939603 C 173.73545,70.660729 174,69.439062 174,68.953396 174,68.46773 174.9,67.588702 176,67 c 2.82778,-1.513383 2.53847,0.304671 -0.58788,3.694236 -1.79057,1.941321 -2.40676,2.241399 -2,0.973977 z"
     style="fill:#000000" />
</svg>
