<?xml version="1.0" encoding="UTF-8" standalone="no"?>
<!DOCTYPE svg PUBLIC "-//W3C//DTD SVG 1.1//EN" "http://www.w3.org/Graphics/SVG/1.1/DTD/svg11.dtd">
<svg width="100%" height="100%" viewBox="0 0 150 150" version="1.1" xmlns="http://www.w3.org/2000/svg" xmlns:xlink="http://www.w3.org/1999/xlink" xml:space="preserve" xmlns:serif="http://www.serif.com/" style="fill-rule:evenodd;clip-rule:evenodd;stroke-linejoin:round;stroke-miterlimit:2;">
    <g transform="matrix(1,0,0,1,-3614,-919)">
        <g transform="matrix(4.16667,0,0,4.16667,0,0)">
            <path d="M888.533,225.475L901.763,225.475L901.763,247.354L888.533,247.354L888.533,225.475ZM887.416,250.879C886.837,250.405 886.258,249.93 885.679,249.455C885.537,249.338 885.258,249.338 885.116,249.455C884.531,249.931 883.946,250.408 883.361,250.884L883.361,225.475L887.416,225.475L887.416,250.879ZM882.244,247.354L868.811,247.354L868.811,225.475L882.244,225.475L882.244,247.354ZM887.195,224.252L868.253,224.252C867.951,224.252 867.694,224.532 867.694,224.864L867.694,247.966C867.694,248.297 867.95,248.578 868.253,248.578L882.244,248.578L882.244,252.097C882.244,252.521 882.733,252.911 883.084,252.625C883.479,252.303 883.873,251.982 884.267,251.661C884.558,251.424 884.848,251.188 885.138,250.952C885.212,250.892 885.321,250.824 885.414,250.761C885.469,250.798 885.524,250.838 885.565,250.879C885.818,251.134 886.129,251.342 886.404,251.568C886.833,251.92 887.263,252.273 887.693,252.625C887.932,252.822 888.168,252.75 888.321,252.568C888.445,252.471 888.533,252.315 888.533,252.097L888.533,248.578L902.322,248.578C902.486,248.578 902.61,248.512 902.699,248.415C902.706,248.408 902.712,248.401 902.719,248.394C902.722,248.39 902.726,248.387 902.729,248.383C902.819,248.285 902.88,248.147 902.88,247.966L902.88,224.864C902.88,224.533 902.625,224.252 902.322,224.252L887.195,224.252Z" style="fill:rgb(237,55,149);fill-rule:nonzero;"/>
            <path d="M871.35,231.218L879.241,231.218C879.72,231.218 879.721,230.403 879.241,230.403L871.35,230.403C870.871,230.403 870.87,231.218 871.35,231.218Z" style="fill:rgb(237,55,149);fill-rule:nonzero;"/>
            <path d="M871.35,234.646L879.241,234.646C879.72,234.646 879.721,233.831 879.241,233.831L871.35,233.831C870.871,233.831 870.87,234.646 871.35,234.646Z" style="fill:rgb(237,55,149);fill-rule:nonzero;"/>
            <path d="M871.35,238.074L879.241,238.074C879.72,238.074 879.721,237.258 879.241,237.258L871.35,237.258C870.871,237.258 870.87,238.074 871.35,238.074Z" style="fill:rgb(237,55,149);fill-rule:nonzero;"/>
            <path d="M871.35,241.501L879.241,241.501C879.72,241.501 879.721,240.686 879.241,240.686L871.35,240.686C870.871,240.686 870.87,241.501 871.35,241.501Z" style="fill:rgb(237,55,149);fill-rule:nonzero;"/>
            <path d="M899.268,230.403L891.376,230.403C890.897,230.403 890.896,231.218 891.376,231.218L899.268,231.218C899.747,231.218 899.748,230.403 899.268,230.403Z" style="fill:rgb(237,55,149);fill-rule:nonzero;"/>
            <path d="M899.268,233.831L891.376,233.831C890.897,233.831 890.896,234.646 891.376,234.646L899.268,234.646C899.747,234.646 899.748,233.831 899.268,233.831Z" style="fill:rgb(237,55,149);fill-rule:nonzero;"/>
            <path d="M899.268,237.258L891.376,237.258C890.897,237.258 890.896,238.074 891.376,238.074L899.268,238.074C899.747,238.074 899.748,237.258 899.268,237.258Z" style="fill:rgb(237,55,149);fill-rule:nonzero;"/>
            <path d="M899.268,240.686L891.376,240.686C890.897,240.686 890.896,241.501 891.376,241.501L899.268,241.501C899.747,241.501 899.748,240.686 899.268,240.686Z" style="fill:rgb(237,55,149);fill-rule:nonzero;"/>
        </g>
    </g>
</svg>
