<?xml version="1.0" encoding="UTF-8" standalone="no"?>
<!DOCTYPE svg PUBLIC "-//W3C//DTD SVG 1.1//EN" "http://www.w3.org/Graphics/SVG/1.1/DTD/svg11.dtd">
<svg width="100%" height="100%" viewBox="0 0 598 598" version="1.1" xmlns="http://www.w3.org/2000/svg" xmlns:xlink="http://www.w3.org/1999/xlink" xml:space="preserve" xmlns:serif="http://www.serif.com/" style="fill-rule:evenodd;clip-rule:evenodd;stroke-linejoin:round;stroke-miterlimit:2;">
    <g transform="matrix(1,0,0,1,-3090,-1232)">
        <g transform="matrix(4.16667,0,0,4.16667,0,0)">
            <path d="M799.326,317.74L756.923,317.74C750.274,317.74 744.883,323.131 744.883,329.78C744.883,336.429 750.274,341.82 756.923,341.82L799.326,341.82C805.975,341.82 811.366,336.429 811.366,329.78C811.366,323.131 805.975,317.74 799.326,317.74Z" style="fill:rgb(223,237,249);fill-rule:nonzero;"/>
            <path d="M872.378,359.64L841.261,359.64C834.611,359.64 829.221,365.03 829.221,371.68C829.221,378.329 834.611,383.72 841.261,383.72L872.378,383.72C879.028,383.72 884.419,378.329 884.419,371.68C884.419,365.03 879.028,359.64 872.378,359.64Z" style="fill:rgb(223,237,249);fill-rule:nonzero;"/>
            <path d="M772.406,399.015L754.422,399.015C747.773,399.015 742.383,404.405 742.383,411.055C742.383,417.704 747.773,423.095 754.422,423.095L772.406,423.095C779.055,423.095 784.446,417.704 784.446,411.055C784.446,404.405 779.055,399.015 772.406,399.015Z" style="fill:rgb(223,237,249);fill-rule:nonzero;"/>
            <path d="M881.846,341.465C883.227,343.706 880.876,346.057 878.634,344.677C878.447,344.561 878.282,344.396 878.167,344.209C876.786,341.968 879.137,339.617 881.379,340.997C881.566,341.112 881.731,341.277 881.846,341.465Z" style="fill:rgb(92,202,231);fill-rule:nonzero;"/>
            <path d="M749.807,367.177C748.563,367.177 747.555,368.185 747.555,369.428C747.555,370.672 748.563,371.68 749.807,371.68C751.05,371.68 752.058,370.672 752.058,369.428C752.058,368.185 751.05,367.177 749.807,367.177Z" style="fill:rgb(210,238,247);fill-rule:nonzero;"/>
            <path d="M842.726,417.371C841.145,417.371 839.864,418.652 839.864,420.233C839.864,421.813 841.145,423.095 842.726,423.095C844.306,423.095 845.588,421.813 845.588,420.233C845.588,418.652 844.306,417.371 842.726,417.371Z" style="fill:rgb(211,235,223);fill-rule:nonzero;"/>
            <path d="M875.609,400.505C873.493,400.505 871.777,402.221 871.777,404.337C871.777,406.454 873.493,408.17 875.609,408.17C877.725,408.17 879.441,406.454 879.441,404.337C879.441,402.221 877.725,400.505 875.609,400.505Z" style="fill:rgb(243,117,93);fill-rule:nonzero;"/>
            <rect x="787.088" y="352.521" width="55.638" height="7.663" style="fill:white;fill-rule:nonzero;"/>
            <path d="M861.416,313.522L768.398,313.522C766.592,313.522 765.128,314.986 765.128,316.792L765.128,349.251C765.128,351.057 766.592,352.521 768.398,352.521L861.416,352.521C863.222,352.521 864.686,351.057 864.686,349.251L864.686,316.792C864.686,314.986 863.222,313.522 861.416,313.522Z" style="fill:rgb(131,176,222);fill-rule:nonzero;"/>
            <rect x="771.449" y="319.843" width="86.915" height="26.357" style="fill:white;fill-rule:nonzero;"/>
            <path d="M861.416,359.576L768.398,359.576C766.592,359.576 765.128,361.04 765.128,362.846L765.128,395.305C765.128,397.111 766.592,398.575 768.398,398.575L861.416,398.575C863.222,398.575 864.686,397.111 864.686,395.305L864.686,362.846C864.686,361.04 863.222,359.576 861.416,359.576Z" style="fill:rgb(131,176,222);fill-rule:nonzero;"/>
            <rect x="771.449" y="365.897" width="86.915" height="26.357" style="fill:white;fill-rule:nonzero;"/>
            <path d="M782.734,328.412C780.188,328.412 778.125,330.476 778.125,333.022C778.125,335.567 780.188,337.631 782.734,337.631C785.28,337.631 787.344,335.567 787.344,333.022C787.344,330.476 785.28,328.412 782.734,328.412Z" style="fill:rgb(131,176,222);fill-rule:nonzero;"/>
            <path d="M796.295,328.412C793.75,328.412 791.686,330.476 791.686,333.022C791.686,335.567 793.75,337.631 796.295,337.631C798.841,337.631 800.905,335.567 800.905,333.022C800.905,330.476 798.841,328.412 796.295,328.412Z" style="fill:rgb(131,176,222);fill-rule:nonzero;"/>
            <path d="M809.857,328.412C807.311,328.412 805.247,330.476 805.247,333.022C805.247,335.567 807.311,337.631 809.857,337.631C812.402,337.631 814.466,335.567 814.466,333.022C814.466,330.476 812.402,328.412 809.857,328.412Z" style="fill:rgb(131,176,222);fill-rule:nonzero;"/>
            <rect x="824.182" y="329.78" width="27.506" height="6.483" style="fill:rgb(131,176,222);fill-rule:nonzero;"/>
            <path d="M782.734,374.466C780.188,374.466 778.125,376.53 778.125,379.076C778.125,381.622 780.188,383.685 782.734,383.685C785.28,383.685 787.344,381.622 787.344,379.076C787.344,376.53 785.28,374.466 782.734,374.466Z" style="fill:rgb(131,176,222);fill-rule:nonzero;"/>
            <path d="M796.295,374.466C793.75,374.466 791.686,376.53 791.686,379.076C791.686,381.622 793.75,383.685 796.295,383.685C798.841,383.685 800.905,381.622 800.905,379.076C800.905,376.53 798.841,374.466 796.295,374.466Z" style="fill:rgb(131,176,222);fill-rule:nonzero;"/>
            <path d="M809.857,374.466C807.311,374.466 805.247,376.53 805.247,379.076C805.247,381.622 807.311,383.685 809.857,383.685C812.402,383.685 814.466,381.622 814.466,379.076C814.466,376.53 812.402,374.466 809.857,374.466Z" style="fill:rgb(131,176,222);fill-rule:nonzero;"/>
            <rect x="824.182" y="375.834" width="27.506" height="6.484" style="fill:rgb(131,176,222);fill-rule:nonzero;"/>
            <path d="M818.218,407.346L811.049,407.346C809.491,407.346 808.227,408.609 808.227,410.167C808.227,411.725 809.491,412.988 811.049,412.988L818.218,412.988C819.777,412.988 821.039,411.725 821.039,410.167C821.039,408.609 819.777,407.346 818.218,407.346Z" style="fill:white;fill-rule:nonzero;"/>
            <path d="M841.691,358L788.119,358L788.119,354.097L841.691,354.097L841.691,358ZM863.104,362.852L863.104,395.311C863.104,396.244 862.346,397.002 861.413,397.002L768.397,397.002C767.465,397.002 766.707,396.244 766.707,395.311L766.707,362.852C766.707,361.92 767.465,361.161 768.397,361.161C779.195,361.163 787.717,361.208 861.413,361.161C862.346,361.161 863.104,361.92 863.104,362.852ZM766.707,349.246L766.707,316.787C766.707,315.854 767.465,315.096 768.397,315.096L861.413,315.096C862.346,315.096 863.104,315.854 863.104,316.787L863.104,349.246C863.104,350.178 862.346,350.937 861.413,350.937L768.397,350.937C767.465,350.937 766.707,350.178 766.707,349.246ZM818.224,408.38C819.267,408.38 820.01,409.248 820.01,410.166C820.01,411.22 819.16,411.968 818.224,411.968L811.05,411.968C810.012,411.968 809.248,411.116 809.248,410.166C809.248,409.255 809.978,408.38 811.05,408.38C811.212,408.38 818.632,408.38 818.224,408.38ZM861.413,354.097C864.084,354.097 866.265,351.932 866.265,349.246L866.265,316.787C866.265,314.116 864.084,311.935 861.413,311.935L768.397,311.935C765.727,311.935 763.546,314.116 763.546,316.787L763.546,349.246C763.546,351.932 765.727,354.097 768.397,354.097L786.065,354.097L786.065,358L768.397,358C765.727,358 763.546,360.166 763.546,362.852L763.546,395.311C763.546,397.982 765.727,400.163 768.397,400.163L813.878,400.163L813.878,406.326L811.05,406.326C809.311,406.326 807.826,407.479 807.352,409.076L790.822,409.076C790.253,409.076 789.794,409.534 789.794,410.103C789.794,410.672 790.253,411.13 790.822,411.13L807.32,411.13C807.747,412.789 809.264,414.022 811.05,414.022L818.224,414.022C820.01,414.022 821.511,412.789 821.938,411.13L838.989,411.13C839.558,411.13 840.016,410.672 840.016,410.103C840.016,409.534 839.558,409.076 838.989,409.076L821.906,409.076C821.432,407.479 819.962,406.326 818.224,406.326L815.932,406.326L815.932,400.163L861.413,400.163C864.084,400.163 866.265,397.982 866.265,395.311L866.265,362.852C866.265,360.166 864.084,358 861.413,358L843.746,358L843.746,354.097L861.413,354.097Z" style="fill:rgb(3,4,4);fill-rule:nonzero;"/>
        </g>
    </g>
</svg>
