
<svg xmlns="http://www.w3.org/2000/svg" width="201" height="190.312" viewBox="0 0 201 190.312">
  <g id="Group_18" data-name="Group 18" transform="translate(-295.39 -298.63)">
    <g id="Group_1" data-name="Group 1" transform="translate(301.892 298.63)">
      <path id="Path_1" data-name="Path 1" d="M499.995,391.64a41.621,41.621,0,0,1-31.28,40.31A27.86,27.86,0,0,1,461,433.165h-.055c-.345.02-.685.035-1.035.045h-.01c-.1,0-.77-.01-1.89-.1a.307.307,0,0,0-.1-.01A47.683,47.683,0,0,1,446.6,430.9v2.345H416.8V365.93a37.5,37.5,0,1,0-37.505,37.505H410.25V433.24H379.3a67.305,67.305,0,1,1,65.89-81.055h.01a67.32,67.32,0,0,1,1.41,13.745v25.71a11.781,11.781,0,1,0,6.55-10.555v-30.7a41.642,41.642,0,0,1,46.835,41.26Z" transform="translate(-312 -298.63)" fill="#fc3d21"/>
      <path id="Path_2" data-name="Path 2" d="M521.61,482.95v2.78c-.02-.37-.02-.7-.02-1.07C521.59,484.08,521.59,483.51,521.61,482.95Z" transform="translate(-416.801 -391.752)" fill="#fc3d21"/>
      <path id="Path_3" data-name="Path 3" d="M521.61,482.95v2.78c-.02-.37-.02-.7-.02-1.07C521.59,484.08,521.59,483.51,521.61,482.95Z" transform="translate(-416.801 -391.752)" fill="#fff"/>
    </g>
    <text id="AFRICA_ORIENT" data-name="AFRICA ORIENT" transform="translate(295.39 479.942)" fill="#fff" font-size="27" font-family="Poppins-SemiBold, Poppins" font-weight="600"><tspan x="0" y="0">AFRICA ORIENT</tspan></text>
    <path id="Path_4" data-name="Path 4" d="M500.01,482.95v2.78c-.02-.37-.02-.7-.02-1.07C499.99,484.08,499.99,483.51,500.01,482.95Z" transform="translate(-125.56 -77.843)" fill="#fc3d21"/>
  </g>
</svg>
