<?xml version="1.0" encoding="UTF-8" standalone="no"?>
<!DOCTYPE svg PUBLIC "-//W3C//DTD SVG 1.1//EN" "http://www.w3.org/Graphics/SVG/1.1/DTD/svg11.dtd">
<svg width="100%" height="100%" viewBox="0 0 161 165" version="1.1" xmlns="http://www.w3.org/2000/svg" xmlns:xlink="http://www.w3.org/1999/xlink" xml:space="preserve" xmlns:serif="http://www.serif.com/" style="fill-rule:evenodd;clip-rule:evenodd;stroke-linejoin:round;stroke-miterlimit:2;">
    <g transform="matrix(1,0,0,1,-2798,-4148)">
        <g transform="matrix(4.16667,0,0,4.16667,0,0)">
            <path d="M699.751,1012.4L680.783,1012.4C680.024,1012.4 680.023,1013.58 680.783,1013.58L699.751,1013.58C700.51,1013.58 700.511,1012.4 699.751,1012.4Z" style="fill:rgb(0,145,255);fill-rule:nonzero;"/>
            <path d="M699.751,1017.78L680.783,1017.78C680.024,1017.78 680.023,1018.96 680.783,1018.96L699.751,1018.96C700.51,1018.96 700.511,1017.78 699.751,1017.78Z" style="fill:rgb(0,145,255);fill-rule:nonzero;"/>
            <path d="M699.751,1023.16L680.783,1023.16C680.024,1023.16 680.023,1024.34 680.783,1024.34L699.751,1024.34C700.51,1024.34 700.511,1023.16 699.751,1023.16Z" style="fill:rgb(0,145,255);fill-rule:nonzero;"/>
            <path d="M699.751,1028.54L680.783,1028.54C680.024,1028.54 680.023,1029.72 680.783,1029.72L699.751,1029.72C700.51,1029.72 700.511,1028.54 699.751,1028.54Z" style="fill:rgb(0,145,255);fill-rule:nonzero;"/>
            <path d="M680.385,1007.62C680.385,1007.13 680.783,1006.73 681.271,1006.73C681.759,1006.73 682.156,1007.13 682.156,1007.62C682.156,1008.1 681.759,1008.5 681.271,1008.5C680.783,1008.5 680.385,1008.1 680.385,1007.62ZM682.785,1007.62C682.785,1006.78 682.105,1006.1 681.271,1006.1C680.436,1006.1 679.756,1006.78 679.756,1007.62C679.756,1008.45 680.436,1009.13 681.271,1009.13C682.105,1009.13 682.785,1008.45 682.785,1007.62Z" style="fill:rgb(0,145,255);fill-rule:nonzero;"/>
            <path d="M685.769,1006.73C686.257,1006.73 686.654,1007.13 686.654,1007.62C686.654,1008.1 686.257,1008.5 685.769,1008.5C685.281,1008.5 684.884,1008.1 684.884,1007.62C684.884,1007.13 685.281,1006.73 685.769,1006.73ZM685.769,1009.13C686.604,1009.13 687.283,1008.45 687.283,1007.62C687.283,1006.78 686.604,1006.1 685.769,1006.1C684.934,1006.1 684.254,1006.78 684.254,1007.62C684.254,1008.45 684.934,1009.13 685.769,1009.13Z" style="fill:rgb(0,145,255);fill-rule:nonzero;"/>
            <path d="M690.267,1006.73C690.755,1006.73 691.152,1007.13 691.152,1007.62C691.152,1008.1 690.755,1008.5 690.267,1008.5C689.779,1008.5 689.382,1008.1 689.382,1007.62C689.382,1007.13 689.779,1006.73 690.267,1006.73ZM690.267,1009.13C691.102,1009.13 691.782,1008.45 691.782,1007.62C691.782,1006.78 691.102,1006.1 690.267,1006.1C689.432,1006.1 688.753,1006.78 688.753,1007.62C688.753,1008.45 689.432,1009.13 690.267,1009.13Z" style="fill:rgb(0,145,255);fill-rule:nonzero;"/>
            <path d="M694.766,1006.73C695.254,1006.73 695.651,1007.13 695.651,1007.62C695.651,1008.1 695.254,1008.5 694.766,1008.5C694.277,1008.5 693.88,1008.1 693.88,1007.62C693.88,1007.13 694.277,1006.73 694.766,1006.73ZM694.766,1009.13C695.601,1009.13 696.28,1008.45 696.28,1007.62C696.28,1006.78 695.601,1006.1 694.766,1006.1C693.93,1006.1 693.251,1006.78 693.251,1007.62C693.251,1008.45 693.93,1009.13 694.766,1009.13Z" style="fill:rgb(0,145,255);fill-rule:nonzero;"/>
            <path d="M699.264,1006.73C699.752,1006.73 700.149,1007.13 700.149,1007.62C700.149,1008.1 699.752,1008.5 699.264,1008.5C698.775,1008.5 698.378,1008.1 698.378,1007.62C698.378,1007.13 698.775,1006.73 699.264,1006.73ZM697.749,1007.62C697.749,1008.45 698.428,1009.13 699.264,1009.13C700.099,1009.13 700.778,1008.45 700.778,1007.62C700.778,1006.78 700.099,1006.1 699.264,1006.1C698.428,1006.1 697.749,1006.78 697.749,1007.62Z" style="fill:rgb(0,145,255);fill-rule:nonzero;"/>
            <path d="M706.087,1006.76C702.263,1006.84 699.202,1005.3 697.904,1002.64C697.809,1002.45 697.726,1002.22 697.658,1001.97L697.622,1001.83L697.496,1001.77C697.01,1001.52 696.573,1001.18 696.231,1000.77C695.181,999.519 695.372,998.035 695.698,996.749C695.736,996.6 695.838,996.565 695.921,996.565C695.956,996.565 695.988,996.572 696.011,996.577C696.058,996.589 696.288,996.661 696.226,996.908C695.946,998.012 695.763,999.008 696.367,1000.02C696.517,1000.27 696.716,1000.51 696.958,1000.73L697.472,1001.21L697.485,1000.51C697.507,999.379 697.862,998.468 698.459,998.01C698.907,997.666 699.491,997.581 700.195,997.755C701.458,998.068 701.638,998.994 701.633,999.519C701.622,1000.56 700.871,1001.8 699.633,1002.08C699.375,1002.14 699.098,1002.16 698.812,1002.14L698.247,1002.1L698.512,1002.6C700.29,1005.96 704.409,1006.24 706.099,1006.21L706.106,1006.21C706.319,1006.21 706.346,1006.39 706.348,1006.47C706.349,1006.52 706.34,1006.76 706.087,1006.76ZM704.122,1034.13L677.146,1034.13L677.146,1002.93L697.345,1002.93C698.519,1005.32 700.982,1006.87 704.122,1007.28L704.122,1034.13ZM704.122,1002.93L704.122,1005.46C702.552,1005.22 700.649,1004.57 699.463,1002.93L704.122,1002.93ZM706.087,1005.58C705.809,1005.59 705.46,1005.59 705.065,1005.56L705.065,1001.98L701.115,1001.98C701.839,1001.33 702.253,1000.37 702.262,999.524C702.274,998.335 701.558,997.445 700.347,997.145C699.46,996.925 698.675,997.051 698.076,997.511C697.478,997.969 697.075,998.754 696.923,999.724C696.917,999.715 696.912,999.707 696.907,999.698C696.426,998.892 696.582,998.063 696.835,997.063C696.979,996.498 696.597,996.077 696.165,995.968C695.736,995.859 695.229,996.039 695.088,996.595C694.745,997.95 694.509,999.696 695.75,1001.18C696.005,1001.48 696.309,1001.75 696.643,1001.98L676.202,1001.98L676.202,1035.08L705.065,1035.08L705.065,1007.37C705.316,1007.39 705.57,1007.4 705.828,1007.4C705.917,1007.4 706.008,1007.4 706.099,1007.39C706.68,1007.38 706.985,1006.9 706.977,1006.46C706.968,1006.02 706.657,1005.59 706.087,1005.58Z" style="fill:rgb(0,145,255);fill-rule:nonzero;"/>
            <path d="M698.562,1000.92C698.484,1000.49 698.506,1000.13 698.626,999.799C698.814,999.289 699.157,999.015 699.597,999.036C700.006,999.054 700.401,999.335 700.496,999.678C700.593,1000.03 700.371,1000.4 699.871,1000.73C699.419,1001.03 698.934,1001.01 698.562,1000.92ZM700.217,1001.25C701.262,1000.57 701.184,999.805 701.102,999.509C700.934,998.9 700.312,998.437 699.623,998.408C698.912,998.376 698.318,998.816 698.036,999.581C697.857,1000.06 697.841,1000.62 697.986,1001.24L698.027,1001.41L698.195,1001.47C698.475,1001.56 698.752,1001.61 699.021,1001.61C699.455,1001.61 699.863,1001.49 700.217,1001.25Z" style="fill:rgb(0,145,255);fill-rule:nonzero;"/>
        </g>
    </g>
</svg>
