<?xml version="1.0" encoding="UTF-8" standalone="no"?>
<!DOCTYPE svg PUBLIC "-//W3C//DTD SVG 1.1//EN" "http://www.w3.org/Graphics/SVG/1.1/DTD/svg11.dtd">
<svg width="100%" height="100%" viewBox="0 0 618 618" version="1.1" xmlns="http://www.w3.org/2000/svg" xmlns:xlink="http://www.w3.org/1999/xlink" xml:space="preserve" xmlns:serif="http://www.serif.com/" style="fill-rule:evenodd;clip-rule:evenodd;stroke-linejoin:round;stroke-miterlimit:2;">
    <g transform="matrix(1,0,0,1,-2190,-3131)">
        <g transform="matrix(4.16667,0,0,4.16667,0,0)">
            <path d="M660.422,845.427L645.92,845.427C638.514,845.427 632.51,851.431 632.51,858.838C632.51,866.244 638.514,872.248 645.92,872.248L660.422,872.248C667.828,872.248 673.832,866.244 673.832,858.838C673.832,851.431 667.828,845.427 660.422,845.427Z" style="fill:rgb(223,237,249);fill-rule:nonzero;"/>
            <path d="M586.885,786.803L545.281,786.803C537.875,786.803 531.871,792.807 531.871,800.213C531.871,807.62 537.875,813.624 545.281,813.624L586.885,813.624C594.291,813.624 600.295,807.62 600.295,800.213C600.295,792.807 594.291,786.803 586.885,786.803Z" style="fill:rgb(223,237,249);fill-rule:nonzero;"/>
            <path d="M670.75,787.86C670.75,780.453 664.746,774.449 657.34,774.449L622.538,774.449C615.132,774.449 609.128,780.453 609.128,787.86C609.128,795.266 615.132,801.27 622.538,801.27L657.34,801.27C664.746,801.27 670.75,795.266 670.75,787.86Z" style="fill:rgb(223,237,249);fill-rule:nonzero;"/>
            <path d="M576.671,772.354C579.066,772.354 581.007,770.413 581.007,768.019C581.007,765.624 579.066,763.683 576.671,763.683C574.277,763.683 572.335,765.624 572.335,768.019C572.335,770.413 574.277,772.354 576.671,772.354Z" style="fill:rgb(223,237,249);fill-rule:nonzero;"/>
            <path d="M567.495,828.333C558.85,828.333 551.833,821.327 551.833,812.672C551.833,804.027 558.85,797.011 567.495,797.011C567.977,797.011 568.459,797.032 568.941,797.086C571.286,789.33 578.346,783.556 586.905,783.246C590.857,783.096 594.575,784.145 597.724,786.063C600.948,777.879 608.918,772.094 618.248,772.094C630.439,772.094 640.315,781.982 640.315,794.172C640.315,795.35 640.219,796.496 640.048,797.621C646.603,799.496 651.392,805.527 651.392,812.672C651.392,821.327 644.375,828.333 635.72,828.333L567.495,828.333Z" style="fill:white;fill-rule:nonzero;"/>
            <path d="M596.262,805.2L572.323,805.2C570.924,805.2 569.789,806.334 569.789,807.734L569.789,853.37C569.789,854.77 570.924,855.904 572.323,855.904L596.262,855.904C597.662,855.904 598.797,854.77 598.797,853.37L598.797,807.734C598.797,806.334 597.662,805.2 596.262,805.2Z" style="fill:rgb(131,176,222);fill-rule:nonzero;"/>
            <path d="M634.062,805.2L610.123,805.2C608.724,805.2 607.589,806.334 607.589,807.734L607.589,853.37C607.589,854.77 608.724,855.904 610.123,855.904L634.062,855.904C635.462,855.904 636.597,854.77 636.597,853.37L636.597,807.734C636.597,806.334 635.462,805.2 634.062,805.2Z" style="fill:rgb(131,176,222);fill-rule:nonzero;"/>
            <rect x="575.943" y="810.878" width="16.699" height="4.88" style="fill:white;fill-rule:nonzero;"/>
            <rect x="575.943" y="819.469" width="16.699" height="4.879" style="fill:white;fill-rule:nonzero;"/>
            <rect x="575.943" y="828.059" width="16.699" height="4.879" style="fill:white;fill-rule:nonzero;"/>
            <rect x="613.743" y="810.878" width="16.699" height="4.88" style="fill:white;fill-rule:nonzero;"/>
            <rect x="613.743" y="819.469" width="16.699" height="4.879" style="fill:white;fill-rule:nonzero;"/>
            <rect x="613.743" y="828.059" width="16.699" height="4.879" style="fill:white;fill-rule:nonzero;"/>
            <path d="M584.293,839.619C581.958,839.619 580.065,841.512 580.065,843.847C580.065,846.182 581.958,848.075 584.293,848.075C586.628,848.075 588.521,846.182 588.521,843.847C588.521,841.512 586.628,839.619 584.293,839.619Z" style="fill:white;fill-rule:nonzero;"/>
            <path d="M622.093,839.619C619.758,839.619 617.865,841.512 617.865,843.847C617.865,846.182 619.758,848.075 622.093,848.075C624.428,848.075 626.321,846.182 626.321,843.847C626.321,841.512 624.428,839.619 622.093,839.619Z" style="fill:white;fill-rule:nonzero;"/>
            <path d="M584.293,862.123C581.72,862.123 579.634,864.209 579.634,866.782C579.634,869.355 581.72,871.441 584.293,871.441C586.866,871.441 588.952,869.355 588.952,866.782C588.952,864.209 586.866,862.123 584.293,862.123Z" style="fill:white;fill-rule:nonzero;"/>
            <path d="M622.093,862.123C619.52,862.123 617.434,864.209 617.434,866.782C617.434,869.355 619.52,871.441 622.093,871.441C624.666,871.441 626.752,869.355 626.752,866.782C626.752,864.209 624.666,862.123 622.093,862.123Z" style="fill:white;fill-rule:nonzero;"/>
            <path d="M637.391,827.176L637.391,807.738C637.391,805.905 635.89,804.404 634.057,804.404L610.116,804.404C608.283,804.404 606.797,805.905 606.797,807.738L606.797,853.377C606.797,855.21 608.283,856.696 610.116,856.696L621.304,856.696L621.304,860.994C618.712,861.342 616.658,863.396 616.31,865.988L590.078,865.988C589.73,863.396 587.676,861.342 585.084,860.994L585.084,856.696L596.256,856.696C598.09,856.696 599.591,855.21 599.591,853.377L599.591,807.738C599.591,805.905 598.09,804.404 596.256,804.404L572.331,804.404C570.498,804.404 568.997,805.905 568.997,807.738L568.997,827.305L567.495,827.305C559.425,827.305 552.86,820.74 552.86,812.672C552.86,804.603 559.425,798.038 567.495,798.038C567.939,798.038 568.383,798.058 568.828,798.106L569.677,798.2L569.924,797.383C572.209,789.828 579.048,784.559 586.944,784.272C590.566,784.14 594.108,785.064 597.189,786.94L598.232,787.575L598.679,786.439C601.867,778.349 609.549,773.121 618.249,773.121C629.85,773.121 639.289,782.564 639.289,794.172C639.289,795.258 639.205,796.335 639.032,797.466L638.896,798.36L639.765,798.609C646.006,800.393 650.364,806.176 650.364,812.672C650.364,820.172 644.678,826.341 637.391,827.176ZM635.811,853.377C635.811,854.325 635.021,855.115 634.057,855.115L610.116,855.115C609.167,855.115 608.377,854.325 608.377,853.377L608.377,807.738C608.377,806.774 609.167,805.984 610.116,805.984L634.057,805.984C635.021,805.984 635.811,806.774 635.811,807.738L635.811,853.377ZM625.571,866.778C625.571,868.648 624.038,870.255 622.094,870.255C620.152,870.255 618.617,868.649 618.617,866.778C618.617,864.88 620.181,863.301 622.094,863.301C623.995,863.301 625.571,864.867 625.571,866.778ZM584.294,870.255C582.351,870.255 580.817,868.649 580.817,866.778C580.817,864.88 582.381,863.301 584.294,863.301C586.191,863.301 587.77,864.863 587.77,866.778C587.77,868.644 586.241,870.255 584.294,870.255ZM570.577,853.377L570.577,807.738C570.577,806.774 571.367,805.984 572.331,805.984L596.256,805.984C597.221,805.984 598.011,806.774 598.011,807.738L598.011,853.377C598.011,854.325 597.221,855.115 596.256,855.115L572.331,855.115C571.367,855.115 570.577,854.325 570.577,853.377ZM652.419,812.672C652.419,805.563 647.841,799.203 641.181,796.902C641.29,795.979 641.343,795.079 641.343,794.172C641.343,781.432 630.983,771.067 618.249,771.067C609.095,771.067 600.968,776.34 597.228,784.598C594.05,782.907 590.485,782.083 586.867,782.219C578.373,782.528 570.978,788.028 568.213,796C567.974,795.988 567.734,795.984 567.495,795.984C558.292,795.984 550.806,803.47 550.806,812.672C550.806,821.873 558.292,829.359 567.495,829.359L568.997,829.359L568.997,853.377C568.997,855.21 570.498,856.696 572.331,856.696L583.504,856.696L583.504,860.994C580.912,861.342 578.857,863.396 578.51,865.988L571.351,865.988C570.909,865.988 570.561,866.351 570.561,866.778C570.561,867.22 570.909,867.568 571.351,867.568L578.51,867.568C578.889,870.413 581.339,872.625 584.294,872.625C587.249,872.625 589.698,870.413 590.078,867.568L616.31,867.568C616.69,870.413 619.139,872.625 622.094,872.625C625.049,872.625 627.499,870.413 627.878,867.568L635.59,867.568C636.032,867.568 636.38,867.22 636.38,866.778C636.38,866.351 636.032,865.988 635.59,865.988L627.878,865.988C627.531,863.396 625.476,861.342 622.885,860.994L622.885,856.696L634.057,856.696C635.89,856.696 637.391,855.21 637.391,853.377L637.391,829.236C645.812,828.391 652.419,821.306 652.419,812.672Z" style="fill:rgb(3,4,4);fill-rule:nonzero;"/>
            <path d="M542.988,835.936C540.488,835.936 538.46,837.963 538.46,840.464C538.46,842.965 540.488,844.992 542.988,844.992C545.489,844.992 547.517,842.965 547.517,840.464C547.517,837.963 545.489,835.936 542.988,835.936Z" style="fill:rgb(254,243,217);fill-rule:nonzero;"/>
            <path d="M559.259,861.216C558.093,861.216 557.147,862.162 557.147,863.329C557.147,864.496 558.093,865.442 559.259,865.442C560.426,865.442 561.372,864.496 561.372,863.329C561.372,862.162 560.426,861.216 559.259,861.216Z" style="fill:rgb(207,148,194);fill-rule:nonzero;"/>
            <path d="M666.436,818.713C665.269,818.713 664.323,819.659 664.323,820.826C664.323,821.992 665.269,822.938 666.436,822.938C667.603,822.938 668.549,821.992 668.549,820.826C668.549,819.659 667.603,818.713 666.436,818.713Z" style="fill:rgb(100,193,143);fill-rule:nonzero;"/>
        </g>
    </g>
</svg>
