<?xml version="1.0" encoding="UTF-8" standalone="no"?>
<!DOCTYPE svg PUBLIC "-//W3C//DTD SVG 1.1//EN" "http://www.w3.org/Graphics/SVG/1.1/DTD/svg11.dtd">
<svg width="100%" height="100%" viewBox="0 0 610 610" version="1.1" xmlns="http://www.w3.org/2000/svg" xmlns:xlink="http://www.w3.org/1999/xlink" xml:space="preserve" xmlns:serif="http://www.serif.com/" style="fill-rule:evenodd;clip-rule:evenodd;stroke-linejoin:round;stroke-miterlimit:2;">
    <g transform="matrix(1,0,0,1,-1339,-2178)">
        <g transform="matrix(4.16667,0,0,4.16667,0,0)">
            <path d="M451.418,543.372L436.094,543.372C429.397,543.372 423.967,548.802 423.967,555.499C423.967,562.198 429.397,567.627 436.094,567.627L451.418,567.627C458.116,567.627 463.545,562.198 463.545,555.499C463.545,548.802 458.116,543.372 451.418,543.372Z" style="fill:rgb(210,238,247);fill-rule:nonzero;"/>
            <path d="M369.945,611.347L344.725,611.347C338.028,611.347 332.598,616.777 332.598,623.475C332.598,630.173 338.028,635.603 344.725,635.603L369.945,635.603C376.643,635.603 382.073,630.173 382.073,623.475C382.073,616.777 376.643,611.347 369.945,611.347Z" style="fill:rgb(210,238,247);fill-rule:nonzero;"/>
            <path d="M359.468,579.755C366.166,579.755 371.596,574.325 371.596,567.627C371.596,560.929 366.166,555.499 359.468,555.499L333.187,555.499C326.49,555.499 321.06,560.929 321.06,567.627C321.06,574.325 326.49,579.755 333.187,579.755L359.468,579.755Z" style="fill:rgb(210,238,247);fill-rule:nonzero;"/>
            <path d="M407.257,537.051L356.401,537.051C354.333,537.051 352.655,538.728 352.655,540.797L352.655,618.795C352.655,620.864 354.333,622.541 356.401,622.541L407.257,622.541C409.325,622.541 411.002,620.864 411.002,618.795L411.002,540.797C411.002,538.728 409.325,537.051 407.257,537.051Z" style="fill:rgb(92,202,231);fill-rule:nonzero;"/>
            <rect x="358.977" y="543.372" width="45.704" height="72.848" style="fill:white;fill-rule:nonzero;"/>
            <rect x="365.413" y="550.021" width="32.832" height="5.414" style="fill:rgb(92,202,231);fill-rule:nonzero;"/>
            <rect x="365.413" y="560.942" width="32.832" height="5.415" style="fill:rgb(92,202,231);fill-rule:nonzero;"/>
            <rect x="365.413" y="593.235" width="32.832" height="5.414" style="fill:rgb(92,202,231);fill-rule:nonzero;"/>
            <rect x="365.413" y="604.156" width="32.832" height="5.414" style="fill:rgb(92,202,231);fill-rule:nonzero;"/>
            <path d="M381.829,574.122C378.478,574.122 375.76,576.839 375.76,580.19C375.76,583.542 378.478,586.259 381.829,586.259C385.181,586.259 387.898,583.542 387.898,580.19C387.898,576.839 385.181,574.122 381.829,574.122Z" style="fill:rgb(92,202,231);fill-rule:nonzero;"/>
            <path d="M387.081,637.959L376.577,637.959C375.41,637.959 374.465,637.014 374.465,635.847L374.465,633.397C374.465,632.23 375.41,631.285 376.577,631.285L387.081,631.285C388.248,631.285 389.193,632.23 389.193,633.397L389.193,635.847C389.193,637.014 388.248,637.959 387.081,637.959Z" style="fill:white;fill-rule:nonzero;"/>
            <path d="M440.827,638.074L406.596,638.074C405.539,638.074 404.681,637.217 404.681,636.159L404.681,608.729C404.681,607.671 405.539,606.814 406.596,606.814L440.827,606.814C441.884,606.814 442.742,607.671 442.742,608.729L442.742,636.159C442.742,637.217 441.884,638.074 440.827,638.074Z" style="fill:white;fill-rule:nonzero;"/>
            <path d="M437.202,598.382L437.202,606.808L431.658,606.808L431.658,598.382C431.658,593.989 428.097,590.427 423.717,590.427C419.324,590.427 415.763,593.989 415.763,598.382L415.763,606.808L410.219,606.808L410.219,598.382C410.219,590.926 416.262,584.884 423.717,584.884C431.159,584.884 437.202,590.926 437.202,598.382Z" style="fill:white;fill-rule:nonzero;"/>
            <path d="M441.562,635.054C441.562,636.065 440.725,636.887 439.713,636.887L407.712,636.887C406.682,636.887 405.863,636.052 405.863,635.054L405.863,609.832C405.863,608.821 406.685,607.999 407.712,607.999L439.713,607.999C440.725,607.999 441.562,608.821 441.562,609.832L441.562,635.054ZM403.493,609.832L403.493,620.96L356.401,620.96C355.207,620.96 354.236,619.988 354.236,618.795L354.236,540.797C354.236,539.603 355.207,538.631 356.401,538.631L407.257,538.631C408.451,538.631 409.422,539.603 409.422,540.797L409.422,605.629L407.712,605.629C405.389,605.629 403.493,607.525 403.493,609.832ZM390.63,633.442C390.108,631.293 388.164,629.712 385.857,629.712L383.012,629.712L383.012,624.121L403.493,624.121L403.493,633.442L390.63,633.442ZM385.857,636.381L377.797,636.381C376.899,636.381 376.043,635.646 376.043,634.627C376.043,633.686 376.817,632.873 377.797,632.873C378.032,632.873 386.06,632.873 385.857,632.873C386.838,632.873 387.611,633.688 387.611,634.627C387.611,635.647 386.754,636.381 385.857,636.381ZM430.864,598.375L430.864,605.629L416.546,605.629L416.546,598.375C416.546,594.424 419.77,591.216 423.721,591.216C427.656,591.216 430.864,594.424 430.864,598.375ZM423.721,585.67C430.721,585.67 436.41,591.374 436.41,598.375L436.41,605.629L432.444,605.629L432.444,598.375C432.444,593.555 428.525,589.636 423.721,589.636C418.901,589.636 414.966,593.555 414.966,598.375L414.966,605.629L411.015,605.629L411.015,598.375C411.015,591.374 416.704,585.67 423.721,585.67ZM439.713,605.629L437.99,605.629L437.99,598.375C437.99,590.505 431.591,584.089 423.721,584.089C419.216,584.089 415.202,586.188 412.583,589.451L412.583,540.797C412.583,537.86 410.194,535.471 407.257,535.471L356.401,535.471C353.465,535.471 351.075,537.86 351.075,540.797L351.075,618.795C351.075,621.732 353.465,624.121 356.401,624.121L380.642,624.121L380.642,629.712L377.797,629.712C375.506,629.712 373.562,631.293 373.025,633.442L357.996,633.442C357.349,633.442 356.811,633.963 356.811,634.627C356.811,635.275 357.349,635.812 357.996,635.812L373.025,635.812C373.562,637.946 375.506,639.542 377.797,639.542L385.857,639.542C388.164,639.542 390.092,637.946 390.63,635.812L403.556,635.812C403.92,637.772 405.658,639.257 407.712,639.257L439.713,639.257C442.036,639.257 443.933,637.377 443.933,635.054L443.933,609.832C443.933,607.525 442.036,605.629 439.713,605.629Z" style="fill:rgb(3,4,4);fill-rule:nonzero;"/>
            <path d="M425.741,624.553L427.016,630.955L420.932,630.955L422.193,624.567C420.973,623.915 420.156,622.654 420.156,621.185C420.156,619.079 421.86,617.374 423.967,617.374C426.073,617.374 427.778,619.079 427.778,621.185C427.778,622.654 426.961,623.915 425.741,624.553Z" style="fill:rgb(92,202,231);fill-rule:nonzero;"/>
            <path d="M452.386,585.873C450.22,585.873 448.464,587.629 448.464,589.796C448.464,591.962 450.22,593.718 452.386,593.718C454.553,593.718 456.309,591.962 456.309,589.796C456.309,587.629 454.553,585.873 452.386,585.873Z" style="fill:rgb(223,237,249);fill-rule:nonzero;"/>
            <path d="M328.636,601.781C327.324,601.648 326.152,602.603 326.018,603.914C325.885,605.226 326.84,606.398 328.151,606.532C329.463,606.665 330.635,605.71 330.769,604.399C330.902,603.087 329.947,601.915 328.636,601.781Z" style="fill:rgb(247,226,238);fill-rule:nonzero;"/>
            <path d="M423.711,529.811C422.864,529.811 422.177,530.497 422.177,531.344C422.177,532.191 422.864,532.877 423.711,532.877C424.557,532.877 425.243,532.191 425.243,531.344C425.243,530.497 424.557,529.811 423.711,529.811Z" style="fill:rgb(207,148,194);fill-rule:nonzero;"/>
            <path d="M342.494,540.984C341.176,540.984 340.107,542.053 340.107,543.372C340.107,544.69 341.176,545.759 342.494,545.759C343.813,545.759 344.882,544.69 344.882,543.372C344.882,542.053 343.813,540.984 342.494,540.984Z" style="fill:rgb(243,117,93);fill-rule:nonzero;"/>
        </g>
    </g>
</svg>
