<?xml version="1.0" encoding="UTF-8" standalone="no"?>
<!DOCTYPE svg PUBLIC "-//W3C//DTD SVG 1.1//EN" "http://www.w3.org/Graphics/SVG/1.1/DTD/svg11.dtd">
<svg width="100%" height="100%" viewBox="0 0 607 607" version="1.1" xmlns="http://www.w3.org/2000/svg" xmlns:xlink="http://www.w3.org/1999/xlink" xml:space="preserve" xmlns:serif="http://www.serif.com/" style="fill-rule:evenodd;clip-rule:evenodd;stroke-linejoin:round;stroke-miterlimit:2;">
    <g transform="matrix(1,0,0,1,-1315,-338)">
        <g transform="matrix(4.16667,0,0,4.16667,0,0)">
            <path d="M446.635,117.449L408.973,117.449C402.324,117.449 396.933,122.839 396.933,129.489C396.933,136.138 402.324,141.529 408.973,141.529L446.635,141.529C453.284,141.529 458.675,136.138 458.675,129.489C458.675,122.839 453.284,117.449 446.635,117.449Z" style="fill:rgb(210,238,247);fill-rule:nonzero;"/>
            <path d="M366.159,164.846L342.054,164.846C335.405,164.846 330.015,170.237 330.015,176.886C330.015,183.535 335.405,188.926 342.054,188.926L366.159,188.926C372.808,188.926 378.199,183.535 378.199,176.886C378.199,170.237 372.808,164.846 366.159,164.846Z" style="fill:rgb(210,238,247);fill-rule:nonzero;"/>
            <path d="M357.534,119.663C364.183,119.663 369.574,114.273 369.574,107.623C369.574,100.974 364.183,95.584 357.534,95.584L337.97,95.584C331.321,95.584 325.93,100.974 325.93,107.623C325.93,114.273 331.321,119.663 337.97,119.663L357.534,119.663Z" style="fill:rgb(210,238,247);fill-rule:nonzero;"/>
            <path d="M411.773,120.328L373.139,120.328C371.468,120.328 370.113,121.683 370.113,123.354L370.113,154.004C370.113,155.676 371.468,157.031 373.139,157.031L411.773,157.031C413.444,157.031 414.799,155.676 414.799,154.004L414.799,123.354C414.799,121.683 413.444,120.328 411.773,120.328Z" style="fill:rgb(92,202,231);fill-rule:nonzero;"/>
            <rect x="375.141" y="125.357" width="34.63" height="26.645" style="fill:white;fill-rule:nonzero;"/>
            <path d="M408.295,110.428L408.295,120.321L401.786,120.321L401.786,110.428C401.786,105.27 397.605,101.088 392.463,101.088C387.305,101.088 383.123,105.27 383.123,110.428L383.123,120.321L376.615,120.321L376.615,110.428C376.615,101.674 383.709,94.58 392.463,94.58C401.201,94.58 408.295,101.674 408.295,110.428Z" style="fill:white;fill-rule:nonzero;"/>
            <path d="M394.233,141.022L395.295,146.354L390.229,146.354L391.278,141.034C390.263,140.492 389.582,139.442 389.582,138.218C389.582,136.464 391.002,135.045 392.756,135.045C394.51,135.045 395.929,136.464 395.929,138.218C395.929,139.442 395.249,140.492 394.233,141.022Z" style="fill:rgb(92,202,231);fill-rule:nonzero;"/>
            <path d="M366.42,175.868L352.5,175.868C351.587,175.868 350.847,176.609 350.847,177.522L350.847,191.442C350.847,192.355 351.587,193.095 352.5,193.095L366.42,193.095C367.333,193.095 368.074,192.355 368.074,191.442L368.074,177.522C368.074,176.609 367.333,175.868 366.42,175.868Z" style="fill:rgb(92,202,231);fill-rule:nonzero;"/>
            <path d="M432.412,175.868L418.492,175.868C417.579,175.868 416.839,176.609 416.839,177.522L416.839,191.442C416.839,192.355 417.579,193.095 418.492,193.095L432.412,193.095C433.325,193.095 434.065,192.355 434.065,191.442L434.065,177.522C434.065,176.609 433.325,175.868 432.412,175.868Z" style="fill:rgb(92,202,231);fill-rule:nonzero;"/>
            <path d="M399.116,175.868L385.196,175.868C384.283,175.868 383.543,176.609 383.543,177.522L383.543,191.442C383.543,192.355 384.283,193.095 385.196,193.095L399.116,193.095C400.029,193.095 400.77,192.355 400.77,191.442L400.77,177.522C400.77,176.609 400.029,175.868 399.116,175.868Z" style="fill:rgb(92,202,231);fill-rule:nonzero;"/>
            <path d="M432.485,191.442C432.485,191.482 432.452,191.515 432.412,191.515L418.419,191.442L418.492,177.448L432.485,177.522L432.485,191.442ZM399.189,177.522L399.189,191.442C399.189,191.482 399.157,191.515 399.116,191.515L385.123,191.442L385.196,177.448L399.189,177.522ZM366.493,177.522L366.493,191.442C366.493,191.482 366.46,191.515 366.42,191.515L352.427,191.442L352.5,177.448L366.493,177.522ZM371.298,154.004L371.298,123.354C371.298,122.338 372.124,121.512 373.139,121.512L411.773,121.512C412.788,121.512 413.614,122.338 413.614,123.354L413.614,154.004C413.614,155.02 412.788,155.845 411.773,155.845L373.139,155.845C372.124,155.845 371.298,155.02 371.298,154.004ZM377.405,110.427C377.405,102.125 384.16,95.37 392.463,95.37C400.757,95.37 407.504,102.125 407.504,110.427L407.504,119.142L402.576,119.142L402.576,110.427C402.576,104.841 398.039,100.297 392.463,100.297C386.877,100.297 382.333,104.841 382.333,110.427L382.333,119.142L377.405,119.142L377.405,110.427ZM400.996,119.142L383.913,119.142L383.913,110.427C383.913,105.713 387.748,101.878 392.463,101.878C397.168,101.878 400.996,105.713 400.996,110.427L400.996,119.142ZM432.412,174.288L426.242,174.288L426.242,170.221C426.242,167.713 424.202,165.672 421.693,165.672L393.246,165.672L393.246,158.216L411.773,158.216C414.095,158.216 415.985,156.327 415.985,154.004L415.985,123.354C415.985,121.031 414.095,119.142 411.773,119.142L409.085,119.142L409.085,110.427C409.085,101.253 401.628,93.79 392.463,93.79C383.288,93.79 375.825,101.253 375.825,110.427L375.825,119.142L373.139,119.142C370.817,119.142 368.927,121.031 368.927,123.354L368.927,154.004C368.927,156.327 370.817,158.216 373.139,158.216L391.666,158.216L391.666,165.672L363.219,165.672C360.71,165.672 358.67,167.713 358.67,170.221L358.67,174.288L352.5,174.288C350.717,174.288 349.266,175.738 349.266,177.522L349.266,191.442C349.266,193.225 350.717,194.676 352.5,194.676L366.42,194.676C368.203,194.676 369.654,193.225 369.654,191.442L369.654,177.522C369.654,175.738 368.203,174.288 366.42,174.288L360.25,174.288L360.25,170.221C360.25,168.584 361.582,167.252 363.219,167.252L391.666,167.252L391.666,174.288L385.196,174.288C383.413,174.288 381.962,175.738 381.962,177.522L381.962,191.442C381.962,193.225 383.413,194.676 385.196,194.676L399.116,194.676C400.899,194.676 402.35,193.225 402.35,191.442L402.35,177.522C402.35,175.738 400.899,174.288 399.116,174.288L393.246,174.288L393.246,167.252L421.693,167.252C423.33,167.252 424.662,168.584 424.662,170.221L424.662,174.288L418.492,174.288C416.709,174.288 415.258,175.738 415.258,177.522L415.258,191.442C415.258,193.225 416.709,194.676 418.492,194.676L432.412,194.676C434.195,194.676 435.646,193.225 435.646,191.442L435.646,177.522C435.646,175.738 434.195,174.288 432.412,174.288Z" style="fill:rgb(3,4,4);fill-rule:nonzero;"/>
            <path d="M428.179,89.91C425.6,89.91 423.509,92.001 423.509,94.58C423.509,97.159 425.6,99.25 428.179,99.25C430.758,99.25 432.849,97.159 432.849,94.58C432.849,92.001 430.758,89.91 428.179,89.91Z" style="fill:rgb(131,176,222);fill-rule:nonzero;"/>
            <path d="M339.832,139.41C338.158,139.41 336.8,140.768 336.8,142.442C336.8,144.117 338.158,145.474 339.832,145.474C341.506,145.474 342.864,144.117 342.864,142.442C342.864,140.768 341.506,139.41 339.832,139.41Z" style="fill:rgb(223,237,249);fill-rule:nonzero;"/>
            <path d="M453,153.999C451.326,153.999 449.968,155.356 449.968,157.031C449.968,158.705 451.326,160.063 453,160.063C454.675,160.063 456.032,158.705 456.032,157.031C456.032,155.356 454.675,153.999 453,153.999Z" style="fill:rgb(253,190,91);fill-rule:nonzero;"/>
            <path d="M442.792,185.133C442.001,185.133 441.359,185.775 441.359,186.566C441.359,187.357 442.001,187.998 442.792,187.998C443.583,187.998 444.225,187.357 444.225,186.566C444.225,185.775 443.583,185.133 442.792,185.133Z" style="fill:rgb(247,226,238);fill-rule:nonzero;"/>
        </g>
    </g>
</svg>
