<?xml version="1.0" encoding="UTF-8" standalone="no"?>
<!DOCTYPE svg PUBLIC "-//W3C//DTD SVG 1.1//EN" "http://www.w3.org/Graphics/SVG/1.1/DTD/svg11.dtd">
<svg width="100%" height="100%" viewBox="0 0 640 640" version="1.1" xmlns="http://www.w3.org/2000/svg" xmlns:xlink="http://www.w3.org/1999/xlink" xml:space="preserve" xmlns:serif="http://www.serif.com/" style="fill-rule:evenodd;clip-rule:evenodd;stroke-linejoin:round;stroke-miterlimit:2;">
    <g transform="matrix(1,0,0,1,-1291,-3108)">
        <g transform="matrix(4.16667,0,0,4.16667,0,0)">
            <path d="M387.87,803.463L337.572,803.463C330.166,803.463 324.162,809.467 324.162,816.873C324.162,824.28 330.166,830.284 337.572,830.284L387.87,830.284C394.568,830.284 399.998,824.854 399.998,818.156L399.998,815.591C399.998,808.893 394.568,803.463 387.87,803.463Z" style="fill:rgb(247,226,238);fill-rule:nonzero;"/>
            <path d="M441.938,847.119L425.056,847.119C417.65,847.119 411.646,853.123 411.646,860.529C411.646,867.936 417.65,873.94 425.056,873.94L441.938,873.94C449.345,873.94 455.349,867.936 455.349,860.529C455.349,853.123 449.345,847.119 441.938,847.119Z" style="fill:rgb(247,226,238);fill-rule:nonzero;"/>
            <path d="M447.033,769.227L419.962,769.227C412.555,769.227 406.551,775.231 406.551,782.637C406.551,790.043 412.555,796.047 419.962,796.047L447.033,796.047C454.44,796.047 460.444,790.043 460.444,782.637C460.444,775.231 454.44,769.227 447.033,769.227Z" style="fill:rgb(247,226,238);fill-rule:nonzero;"/>
            <path d="M408.56,783.82L370.095,783.82C368.036,783.82 366.367,785.49 366.367,787.549L366.367,849.973C366.367,852.032 368.036,853.702 370.095,853.702L408.56,853.702C410.619,853.702 412.288,852.032 412.288,849.973L412.288,787.549C412.288,785.49 410.619,783.82 408.56,783.82Z" style="fill:rgb(207,148,194);fill-rule:nonzero;"/>
            <rect x="373.647" y="790.403" width="31.36" height="56.716" style="fill:white;fill-rule:nonzero;"/>
            <rect x="379.542" y="798.765" width="19.571" height="3.868" style="fill:rgb(207,148,194);fill-rule:nonzero;"/>
            <rect x="379.542" y="807.295" width="19.571" height="3.868" style="fill:rgb(207,148,194);fill-rule:nonzero;"/>
            <rect x="379.542" y="815.825" width="19.571" height="3.868" style="fill:rgb(207,148,194);fill-rule:nonzero;"/>
            <path d="M389.327,828.727C386.558,828.727 384.313,830.972 384.313,833.742C384.313,836.511 386.558,838.757 389.327,838.757C392.097,838.757 394.342,836.511 394.342,833.742C394.342,830.972 392.097,828.727 389.327,828.727Z" style="fill:rgb(207,148,194);fill-rule:nonzero;"/>
            <rect x="421.425" y="775.141" width="17.243" height="17.243" style="fill:rgb(207,148,194);fill-rule:nonzero;"/>
            <rect x="339.11" y="775.141" width="17.242" height="17.243" style="fill:rgb(207,148,194);fill-rule:nonzero;"/>
            <rect x="339.11" y="845.138" width="17.242" height="17.243" style="fill:rgb(207,148,194);fill-rule:nonzero;"/>
            <rect x="421.425" y="845.138" width="17.243" height="17.243" style="fill:rgb(207,148,194);fill-rule:nonzero;"/>
            <path d="M410.708,849.973C410.708,851.158 409.744,852.122 408.56,852.122L370.095,852.122C368.911,852.122 367.947,851.158 367.947,849.973L367.947,787.549C367.947,786.365 368.911,785.401 370.095,785.401L408.56,785.401C409.744,785.401 410.708,786.365 410.708,787.549L410.708,849.973ZM437.088,860.8L423.005,860.8L423.005,846.718L437.088,846.718L437.088,860.8ZM354.772,860.8L340.69,860.8L340.69,846.718L354.772,846.718L354.772,860.8ZM340.69,776.721L354.772,776.721L354.772,790.804L340.69,790.804L340.69,776.721ZM423.005,776.721L437.088,776.721L437.088,790.804L423.005,790.804L423.005,776.721ZM424.814,806.9C428.353,806.9 431.232,804.021 431.232,800.481L431.232,793.964L438.668,793.964C439.541,793.964 440.248,793.257 440.248,792.384L440.248,775.141C440.248,774.268 439.541,773.561 438.668,773.561L421.425,773.561C420.552,773.561 419.845,774.268 419.845,775.141L419.845,792.384C419.845,793.257 420.552,793.964 421.425,793.964L428.861,793.964L428.861,800.481C428.861,802.714 427.046,804.529 424.814,804.529L413.869,804.529L413.869,787.549C413.869,784.621 411.487,782.24 408.56,782.24L370.095,782.24C367.168,782.24 364.786,784.621 364.786,787.549L364.786,804.529L352.964,804.529C350.732,804.529 348.916,802.714 348.916,800.481L348.916,793.964L356.352,793.964C357.225,793.964 357.933,793.257 357.933,792.384L357.933,775.141C357.933,774.268 357.225,773.561 356.352,773.561L339.11,773.561C338.237,773.561 337.529,774.268 337.529,775.141L337.529,792.384C337.529,793.257 338.237,793.964 339.11,793.964L346.546,793.964L346.546,800.481C346.546,804.021 349.425,806.9 352.964,806.9L364.786,806.9L364.786,830.623L352.964,830.623C349.425,830.623 346.546,833.502 346.546,837.04L346.546,843.557L339.11,843.557C338.237,843.557 337.529,844.265 337.529,845.138L337.529,862.38C337.529,863.253 338.237,863.961 339.11,863.961L356.352,863.961C357.225,863.961 357.933,863.253 357.933,862.38L357.933,845.138C357.933,844.265 357.225,843.557 356.352,843.557L348.916,843.557L348.916,837.04C348.916,834.809 350.732,832.993 352.964,832.993L364.786,832.993L364.786,849.973C364.786,852.9 367.168,855.282 370.095,855.282L408.56,855.282C411.487,855.282 413.869,852.9 413.869,849.973L413.869,832.993L424.814,832.993C427.046,832.993 428.861,834.809 428.861,837.04L428.861,843.557L421.425,843.557C420.552,843.557 419.845,844.265 419.845,845.138L419.845,862.38C419.845,863.253 420.552,863.961 421.425,863.961L438.668,863.961C439.541,863.961 440.248,863.253 440.248,862.38L440.248,845.138C440.248,844.265 439.541,843.557 438.668,843.557L431.232,843.557L431.232,837.04C431.232,833.502 428.353,830.623 424.814,830.623L413.869,830.623L413.869,806.9L424.814,806.9Z" style="fill:rgb(3,4,4);fill-rule:nonzero;"/>
            <path d="M453.844,815.576C450.526,815.576 447.837,818.265 447.837,821.583C447.837,824.901 450.526,827.59 453.844,827.59C457.161,827.59 459.851,824.901 459.851,821.583C459.851,818.265 457.161,815.576 453.844,815.576Z" style="fill:rgb(210,238,247);fill-rule:nonzero;"/>
            <path d="M379.542,759.049C377.791,759.049 376.371,760.468 376.371,762.219C376.371,763.97 377.791,765.39 379.542,765.39C381.293,765.39 382.713,763.97 382.713,762.219C382.713,760.468 381.293,759.049 379.542,759.049Z" style="fill:rgb(207,148,194);fill-rule:nonzero;"/>
            <path d="M362.079,872.303C360.329,872.303 358.909,873.723 358.909,875.474C358.909,877.225 360.329,878.645 362.079,878.645C363.831,878.645 365.25,877.225 365.25,875.474C365.25,873.723 363.831,872.303 362.079,872.303Z" style="fill:rgb(253,190,91);fill-rule:nonzero;"/>
            <path d="M327.332,789.776C325.892,789.776 324.724,790.944 324.724,792.384C324.724,793.825 325.892,794.992 327.332,794.992C328.773,794.992 329.94,793.825 329.94,792.384C329.94,790.944 328.773,789.776 327.332,789.776Z" style="fill:rgb(100,193,143);fill-rule:nonzero;"/>
            <path d="M398.658,864.186C400.032,866.417 397.692,868.757 395.461,867.383C395.275,867.268 395.111,867.104 394.996,866.917C393.622,864.686 395.962,862.346 398.193,863.721C398.379,863.835 398.543,863.999 398.658,864.186Z" style="fill:rgb(254,243,217);fill-rule:nonzero;"/>
        </g>
    </g>
</svg>
