<?xml version="1.0" encoding="UTF-8" standalone="no"?>
<!DOCTYPE svg PUBLIC "-//W3C//DTD SVG 1.1//EN" "http://www.w3.org/Graphics/SVG/1.1/DTD/svg11.dtd">
<svg width="100%" height="100%" viewBox="0 0 1267 1446" version="1.1" xmlns="http://www.w3.org/2000/svg" xmlns:xlink="http://www.w3.org/1999/xlink" xml:space="preserve" xmlns:serif="http://www.serif.com/" style="fill-rule:evenodd;clip-rule:evenodd;stroke-linejoin:round;stroke-miterlimit:2;">
    <g transform="matrix(1,0,0,1,-1080,-113)">
        <g transform="matrix(4.16667,0,0,4.16667,0,0)">
            <path d="M289.708,238.774C289.596,238.774 289.482,238.745 289.378,238.684L279.722,232.971C279.092,232.598 278.722,231.938 278.731,231.206C278.74,230.475 279.128,229.825 279.767,229.469L350.208,190.188C352.507,188.906 353.935,186.476 353.935,183.844L353.935,146.24C353.935,145.607 354.262,145.04 354.81,144.724C355.358,144.408 356.011,144.408 356.56,144.724L363.215,148.567C363.525,148.746 363.632,149.144 363.452,149.454C363.273,149.765 362.878,149.872 362.564,149.692L355.909,145.849C355.709,145.732 355.527,145.81 355.459,145.849C355.392,145.888 355.233,146.004 355.233,146.24L355.233,183.844C355.233,186.946 353.55,189.812 350.841,191.323L280.399,230.604C280.071,230.786 280.031,231.098 280.03,231.224C280.028,231.349 280.06,231.661 280.384,231.854L290.04,237.566C290.349,237.749 290.45,238.147 290.268,238.456C290.146,238.661 289.931,238.774 289.708,238.774Z" style="fill:rgb(85,147,206);fill-rule:nonzero;"/>
            <path d="M284.437,238.125L287.104,233.474L297.141,239.229L294.474,243.88L284.437,238.125Z" style="fill:rgb(85,147,206);fill-rule:nonzero;"/>
            <path d="M283.878,236.899C283.874,235.69 284.719,234.218 285.764,233.61C286.809,233.003 287.659,233.49 287.663,234.699C287.666,235.908 286.822,237.381 285.776,237.988C284.731,238.596 283.882,238.108 283.878,236.899Z" style="fill:rgb(85,147,206);fill-rule:nonzero;"/>
            <path d="M291.893,244.317L296.215,236.78L311.956,245.808L307.634,253.344L291.893,244.317Z" style="fill:rgb(85,147,206);fill-rule:nonzero;"/>
            <path d="M295.489,238.282L292.093,236.334C290.687,237.342 289.585,239.263 289.426,240.985L292.822,242.934C294.229,241.926 295.33,240.004 295.489,238.282Z" style="fill:rgb(56,109,171);fill-rule:nonzero;"/>
            <path d="M290.987,242.331C290.981,240.373 292.35,237.986 294.043,237.002C295.736,236.018 297.114,236.808 297.12,238.767C297.126,240.726 295.758,243.111 294.064,244.096C292.37,245.08 290.993,244.29 290.987,242.331Z" style="fill:rgb(85,147,206);fill-rule:nonzero;"/>
            <path d="M287.044,235.657C286.552,235.375 286.551,234.915 287.041,234.631C287.531,234.346 288.327,234.343 288.819,234.625C289.312,234.907 289.313,235.367 288.822,235.652C288.332,235.938 287.536,235.939 287.044,235.657Z" style="fill:rgb(212,235,250);fill-rule:nonzero;"/>
            <path d="M360.653,150.92L363.32,146.269L373.356,152.024L370.689,156.675L360.653,150.92Z" style="fill:rgb(85,147,206);fill-rule:nonzero;"/>
            <path d="M360.094,149.694C360.091,148.485 360.935,147.013 361.979,146.405C363.025,145.798 363.875,146.286 363.879,147.494C363.883,148.703 363.038,150.176 361.993,150.783C360.947,151.391 360.098,150.903 360.094,149.694Z" style="fill:rgb(85,147,206);fill-rule:nonzero;"/>
            <path d="M368.108,157.112L372.431,149.576L388.172,158.603L383.851,166.139L368.108,157.112Z" style="fill:rgb(85,147,206);fill-rule:nonzero;"/>
            <path d="M371.706,151.077L368.309,149.129C366.903,150.137 365.801,152.058 365.642,153.781L369.038,155.729C370.444,154.721 371.546,152.799 371.706,151.077Z" style="fill:rgb(56,109,171);fill-rule:nonzero;"/>
            <path d="M367.203,155.126C367.197,153.168 368.565,150.782 370.259,149.797C371.953,148.813 373.33,149.603 373.336,151.562C373.342,153.521 371.974,155.906 370.28,156.891C368.587,157.875 367.209,157.085 367.203,155.126Z" style="fill:rgb(85,147,206);fill-rule:nonzero;"/>
            <path d="M363.26,148.453C362.768,148.17 362.767,147.71 363.257,147.426C363.747,147.141 364.544,147.138 365.035,147.42C365.527,147.703 365.529,148.162 365.038,148.447C364.548,148.732 363.752,148.735 363.26,148.453Z" style="fill:rgb(212,235,250);fill-rule:nonzero;"/>
            <path d="M402.109,172.492C401.885,172.492 401.666,172.376 401.546,172.167C401.366,171.857 401.473,171.459 401.783,171.28L426.062,157.263C428.104,156.083 429.374,153.886 429.374,151.527L429.374,114.909C429.374,114.188 429.747,113.542 430.372,113.182C430.997,112.821 431.742,112.823 432.367,113.184L471.604,135.927L471.604,105.363C471.604,105.004 471.895,104.713 472.253,104.713C472.611,104.713 472.902,105.004 472.902,105.363L472.902,137.054C472.902,137.286 472.778,137.5 472.577,137.617C472.376,137.732 472.13,137.732 471.927,137.616L431.715,114.308C431.402,114.127 431.125,114.248 431.021,114.307C430.916,114.368 430.673,114.547 430.673,114.909L430.673,151.527C430.673,154.348 429.155,156.977 426.712,158.388L402.434,172.405C402.331,172.464 402.219,172.492 402.109,172.492Z" style="fill:rgb(85,147,206);fill-rule:nonzero;"/>
            <path d="M450.675,199.786C450.45,199.786 450.231,199.669 450.111,199.461C449.932,199.15 450.038,198.753 450.349,198.574L480.545,181.14C482.588,179.96 483.857,177.762 483.857,175.404L483.857,112.337C483.857,111.978 484.148,111.688 484.507,111.688C484.865,111.688 485.156,111.978 485.156,112.337L485.156,175.404C485.156,178.225 483.639,180.854 481.195,182.265L450.999,199.699C450.896,199.758 450.784,199.786 450.675,199.786Z" style="fill:rgb(85,147,206);fill-rule:nonzero;"/>
            <path d="M504.818,230.104C504.577,230.104 504.342,229.979 504.213,229.755C504.021,229.422 504.135,228.994 504.469,228.802L531.849,212.993C533.884,211.818 535.144,209.629 535.136,207.279L535.046,177.839C535.039,175.502 533.776,173.326 531.751,172.16L496.412,151.808C496.196,151.684 496.063,151.453 496.063,151.203L496.063,119.311C496.063,118.925 496.375,118.613 496.761,118.613C497.146,118.613 497.459,118.925 497.459,119.311L497.459,150.8L532.448,170.95C534.903,172.364 536.434,175.002 536.442,177.835L536.532,207.275C536.54,210.124 535.014,212.778 532.546,214.202L505.166,230.011C505.057,230.074 504.937,230.104 504.818,230.104Z" style="fill:rgb(85,147,206);fill-rule:nonzero;"/>
            <rect x="494.08" y="117.37" width="5.361" height="11.569" style="fill:rgb(85,147,206);fill-rule:nonzero;"/>
            <path d="M498.656,130.034C497.609,130.638 495.912,130.638 494.865,130.034C493.818,129.429 493.818,128.449 494.865,127.845C495.912,127.241 497.609,127.241 498.656,127.845C499.703,128.449 499.703,129.429 498.656,130.034Z" style="fill:rgb(85,147,206);fill-rule:nonzero;"/>
            <rect x="492.417" y="101.245" width="8.687" height="18.146" style="fill:rgb(85,147,206);fill-rule:nonzero;"/>
            <path d="M494.08,119.273L494.08,123.188C495.653,123.907 497.868,123.907 499.441,123.188L499.441,119.273C497.868,118.554 495.653,118.554 494.08,119.273Z" style="fill:rgb(56,109,171);fill-rule:nonzero;"/>
            <path d="M499.832,121.165C498.136,122.144 495.386,122.144 493.688,121.165C491.992,120.185 491.992,118.597 493.688,117.618C495.386,116.638 498.136,116.638 499.832,117.618C501.528,118.597 501.528,120.185 499.832,121.165Z" style="fill:rgb(85,147,206);fill-rule:nonzero;"/>
            <rect x="481.826" y="110.396" width="5.362" height="11.569" style="fill:rgb(85,147,206);fill-rule:nonzero;"/>
            <path d="M486.402,123.06C485.355,123.665 483.658,123.665 482.611,123.06C481.564,122.456 481.564,121.476 482.611,120.871C483.658,120.267 485.355,120.267 486.402,120.871C487.449,121.476 487.449,122.456 486.402,123.06Z" style="fill:rgb(85,147,206);fill-rule:nonzero;"/>
            <rect x="480.163" y="94.271" width="8.688" height="18.146" style="fill:rgb(85,147,206);fill-rule:nonzero;"/>
            <path d="M481.826,112.299L481.826,116.214C483.399,116.933 485.614,116.934 487.188,116.215L487.188,112.299C485.614,111.581 483.399,111.581 481.826,112.299Z" style="fill:rgb(56,109,171);fill-rule:nonzero;"/>
            <path d="M487.578,114.19C485.882,115.17 483.132,115.17 481.436,114.19C479.738,113.211 479.738,111.623 481.435,110.644C483.132,109.664 485.882,109.664 487.578,110.644C489.274,111.623 489.274,113.211 487.578,114.19Z" style="fill:rgb(85,147,206);fill-rule:nonzero;"/>
            <rect x="469.572" y="103.422" width="5.362" height="11.57" style="fill:rgb(85,147,206);fill-rule:nonzero;"/>
            <path d="M474.148,116.086C473.102,116.69 471.404,116.69 470.357,116.086C469.311,115.482 469.311,114.502 470.357,113.897C471.404,113.293 473.102,113.293 474.148,113.897C475.195,114.502 475.195,115.482 474.148,116.086Z" style="fill:rgb(85,147,206);fill-rule:nonzero;"/>
            <rect x="467.909" y="87.298" width="8.688" height="18.145" style="fill:rgb(85,147,206);fill-rule:nonzero;"/>
            <path d="M469.572,105.325L469.572,109.241C471.146,109.959 473.36,109.959 474.934,109.241L474.934,105.325C473.36,104.607 471.146,104.607 469.572,105.325Z" style="fill:rgb(56,109,171);fill-rule:nonzero;"/>
            <path d="M475.324,107.217C473.628,108.196 470.878,108.196 469.182,107.217C467.484,106.237 467.484,104.649 469.182,103.67C470.878,102.69 473.628,102.69 475.324,103.67C477.021,104.649 477.021,106.237 475.324,107.217Z" style="fill:rgb(85,147,206);fill-rule:nonzero;"/>
            <path d="M529.813,133.421L541.461,126.56L530.367,112.714L527.45,117.479L529.813,133.421Z" style="fill:rgb(85,147,206);fill-rule:nonzero;"/>
            <path d="M445.229,57.429L463.821,46.733L463.122,57.429L452.441,60.737L445.229,57.429Z" style="fill:rgb(85,147,206);fill-rule:nonzero;"/>
            <path d="M533.05,98.603C531.635,97.787 530.284,97.31 529.027,97.113C527.153,87.262 520.297,76.8 512.125,72.081C509.666,70.662 507.328,69.903 505.208,69.74C504.092,57.8 495.79,44.23 485.708,38.409C480.441,35.369 475.663,35.009 472.138,36.871L472.138,36.862L471.967,36.96L471.699,37.114L460.736,43.589L464.379,46.466C461.109,47.895 459.042,51.563 459.042,56.984C459.042,66.981 466.061,79.137 474.719,84.136L533.05,125.788C539.551,129.542 544.821,126.499 544.821,118.992C544.821,111.485 539.551,102.356 533.05,98.603Z" style="fill:rgb(85,147,206);fill-rule:nonzero;"/>
            <path d="M459.584,52.582L484.745,37.881C479.86,35.333 475.447,35.123 472.138,36.871L472.138,36.862L471.967,36.96L471.699,37.114L460.736,43.589L464.379,46.466C462.094,47.465 460.398,49.561 459.584,52.582Z" style="fill:rgb(85,147,206);fill-rule:nonzero;"/>
            <path d="M506.051,95.831L524.41,85.057C521.261,79.61 516.925,74.853 512.125,72.081C511.489,71.714 510.862,71.394 510.245,71.114L486.894,84.77L506.051,95.831Z" style="fill:rgb(85,147,206);fill-rule:nonzero;"/>
            <path d="M465.909,44.792L474.091,49.516L489.074,40.69C487.98,39.84 486.856,39.072 485.708,38.409C483.894,37.362 482.14,36.64 480.472,36.21L465.909,44.792Z" style="fill:rgb(212,235,250);fill-rule:nonzero;"/>
            <path d="M522.385,81.887L507.732,90.521L512.828,96.205L526.13,88.351C525.078,86.098 523.814,83.92 522.385,81.887Z" style="fill:rgb(212,235,250);fill-rule:nonzero;"/>
            <path d="M521.539,105.383C520.125,104.566 518.774,104.089 517.518,103.892C515.643,94.041 508.788,83.58 500.615,78.861C498.156,77.441 495.818,76.683 493.698,76.52C492.582,64.58 484.28,51.01 474.198,45.189C463.355,38.929 454.566,44.003 454.566,56.523C454.566,56.948 454.578,57.376 454.599,57.807C446.67,54.129 440.475,58.272 440.475,67.664C440.475,77.661 447.493,89.817 456.151,94.816L521.539,132.568C528.041,136.321 533.312,133.279 533.312,125.771C533.312,118.265 528.041,109.137 521.539,105.383Z" style="fill:rgb(212,235,250);fill-rule:nonzero;"/>
            <path d="M454.599,57.807C454.578,57.376 454.566,56.948 454.566,56.523L454.567,56.47C450.188,54.767 446.423,55.508 444.061,58.241C446.627,56.129 450.359,55.84 454.599,57.807Z" style="fill:white;fill-rule:nonzero;"/>
            <path d="M522.497,104.45C521.081,103.633 519.731,103.156 518.474,102.959C516.601,93.108 509.746,82.647 501.572,77.928C499.114,76.509 496.776,75.75 494.655,75.587C493.54,63.647 485.237,50.077 475.155,44.256C468.4,40.356 462.443,40.857 458.911,44.815C462.51,41.74 468.02,41.622 474.198,45.189C484.28,51.01 492.582,64.58 493.698,76.52C495.818,76.683 498.156,77.442 500.615,78.861C508.788,83.58 515.643,94.041 517.518,103.893C518.774,104.089 520.125,104.566 521.539,105.383C528.041,109.137 533.312,118.265 533.312,125.772C533.312,128.481 532.617,130.598 531.435,132.034C533.198,130.676 534.27,128.213 534.27,124.839C534.27,117.332 528.999,108.204 522.497,104.45Z" style="fill:white;fill-rule:nonzero;"/>
            <path d="M453.216,60.788L458.131,63.067L457.881,57.655C457.863,57.275 457.853,56.898 457.853,56.523C457.853,51.692 459.312,48.189 461.959,46.66C464.607,45.132 468.371,45.62 472.555,48.035C481.553,53.23 489.403,65.876 490.426,76.826L490.684,79.584L493.446,79.797C495.145,79.927 497.003,80.57 498.972,81.707C506.119,85.833 512.56,95.422 514.289,104.506L514.722,106.78L517.008,107.139C517.919,107.282 518.892,107.648 519.896,108.229C525.387,111.399 530.025,119.433 530.025,125.771C530.025,128.144 529.367,129.884 528.221,130.547C527.074,131.208 525.238,130.908 523.184,129.722L457.795,91.97C450.188,87.579 443.762,76.448 443.762,67.664C443.762,64.217 444.778,61.592 446.551,60.459C447.279,59.994 448.162,59.762 449.156,59.762C450.367,59.762 451.744,60.105 453.216,60.788Z" style="fill:rgb(56,109,171);fill-rule:nonzero;"/>
            <path d="M485.851,101.769L487.575,100.903L485.877,99.617L485.851,101.769Z" style="fill:rgb(85,147,206);fill-rule:nonzero;"/>
            <path d="M480.67,78.468L482.345,77.622L482.375,78.498L480.67,78.468Z" style="fill:rgb(85,147,206);fill-rule:nonzero;"/>
            <path d="M490.771,96.323L492.519,95.444L489.155,92.245L490.771,96.323Z" style="fill:rgb(85,147,206);fill-rule:nonzero;"/>
            <path d="M487.07,100.848L478.904,96.039C478.489,95.794 478.154,95.18 478.156,94.665L478.183,85.21L487.851,90.905L487.824,100.359C487.822,100.873 487.485,101.092 487.07,100.848Z" style="fill:rgb(85,147,206);fill-rule:nonzero;"/>
            <path d="M482.327,77.632L473.506,83.308C473.132,83.549 473.435,84.447 474.003,84.781L483.011,90.087L492.02,95.393C492.588,95.727 492.895,95.188 492.522,94.508L483.764,78.478C483.386,77.786 482.708,77.387 482.327,77.632Z" style="fill:rgb(85,147,206);fill-rule:nonzero;"/>
            <path d="M485.319,101.729L477.153,96.92C476.738,96.676 476.403,96.061 476.405,95.547L476.432,86.092L486.1,91.787L486.072,101.241C486.071,101.755 485.733,101.974 485.319,101.729Z" style="fill:rgb(212,235,250);fill-rule:nonzero;"/>
            <path d="M480.575,78.514L471.755,84.19C471.381,84.431 471.684,85.329 472.252,85.663L481.26,90.969L490.269,96.274C490.837,96.609 491.144,96.07 490.771,95.39L482.013,79.36C481.634,78.668 480.956,78.269 480.575,78.514Z" style="fill:rgb(212,235,250);fill-rule:nonzero;"/>
            <path d="M471.496,113.958C471.496,114.524 471.099,114.754 470.607,114.471C470.116,114.188 469.718,113.498 469.718,112.931C469.718,112.363 470.116,112.134 470.607,112.417C471.099,112.701 471.496,113.39 471.496,113.958Z" style="fill:rgb(212,235,250);fill-rule:nonzero;"/>
            <path d="M399.257,240.636L423.774,226.48C425.279,225.611 425.091,224.095 423.353,223.091L399.679,209.423C397.941,208.42 395.313,208.311 393.809,209.18L369.291,223.335C367.786,224.204 367.975,225.722 369.712,226.725L393.386,240.393C395.124,241.396 397.752,241.505 399.257,240.636Z" style="fill-opacity:0.34;fill-rule:nonzero;"/>
            <path d="M361.157,212.554L361.157,201.96L384.911,201.947L393.121,197.207C395.006,196.119 398.297,196.255 400.473,197.511L408.133,201.934L431.908,201.921L431.908,212.815C431.962,213.552 431.551,214.262 430.646,214.785L399.944,232.511C398.06,233.599 394.769,233.462 392.593,232.206L362.947,215.09C361.692,214.365 361.087,213.427 361.157,212.554Z" style="fill:rgb(56,109,171);fill-rule:nonzero;"/>
            <path d="M396.532,196.478C397.911,196.511 399.343,196.858 400.473,197.511L408.133,201.934L431.908,201.921L431.908,212.815C431.962,213.552 431.551,214.262 430.646,214.785L399.944,232.511C399.038,233.033 397.808,233.271 396.532,233.239L396.532,196.478Z" style="fill:rgb(56,109,171);fill-rule:nonzero;"/>
            <path d="M429.217,201.922L431.908,201.921L431.908,212.815C431.962,213.552 431.551,214.262 430.646,214.785L429.217,215.609L429.217,201.922Z" style="fill:rgb(85,147,206);fill-rule:nonzero;"/>
            <path d="M399.471,232.742C397.846,233.438 395.495,233.399 393.595,232.675L393.595,220.305L399.471,220.305L399.471,232.742Z" style="fill:rgb(85,147,206);fill-rule:nonzero;"/>
            <path d="M399.944,221.655L430.646,203.93C432.529,202.842 432.294,200.941 430.118,199.685L400.473,182.57C398.297,181.313 395.006,181.177 393.121,182.265L362.42,199.991C360.535,201.078 360.771,202.979 362.947,204.235L392.593,221.351C394.769,222.606 398.06,222.743 399.944,221.655Z" style="fill:rgb(212,235,250);fill-rule:nonzero;"/>
            <path d="M399.392,218.465L425.119,203.61C426.698,202.699 426.501,201.106 424.678,200.054L399.835,185.711C398.012,184.658 395.253,184.544 393.674,185.456L367.946,200.31C366.367,201.222 366.564,202.813 368.388,203.866L393.23,218.209C395.054,219.262 397.813,219.376 399.392,218.465Z" style="fill:rgb(85,147,206);fill-rule:nonzero;"/>
            <path d="M372.45,215.349C372.45,216.14 373.005,217.102 373.69,217.497C374.375,217.893 374.93,217.571 374.93,216.781C374.93,215.99 374.375,215.028 373.69,214.633C373.005,214.237 372.45,214.559 372.45,215.349Z" style="fill:rgb(212,235,250);fill-rule:nonzero;"/>
            <path d="M368.46,213.046C368.46,213.836 369.016,214.798 369.7,215.193C370.385,215.589 370.94,215.269 370.94,214.478C370.94,213.687 370.385,212.725 369.7,212.329C369.016,211.935 368.46,212.255 368.46,213.046Z" style="fill:rgb(212,235,250);fill-rule:nonzero;"/>
            <path d="M364.471,210.742C364.471,211.533 365.025,212.494 365.711,212.89C366.396,213.285 366.95,212.965 366.95,212.174C366.95,211.383 366.396,210.422 365.711,210.026C365.025,209.631 364.471,209.951 364.471,210.742Z" style="fill:rgb(212,235,250);fill-rule:nonzero;"/>
            <path d="M361.157,195.625L361.157,185.031L384.911,185.018L393.121,180.278C395.006,179.19 398.297,179.326 400.473,180.583L408.133,185.005L431.908,184.992L431.908,195.887C431.962,196.623 431.551,197.333 430.646,197.856L399.944,215.582C398.06,216.67 394.769,216.533 392.593,215.277L362.947,198.162C361.692,197.437 361.087,196.499 361.157,195.625Z" style="fill:rgb(56,109,171);fill-rule:nonzero;"/>
            <path d="M396.532,179.549C397.911,179.583 399.343,179.93 400.473,180.583L408.133,185.005L431.908,184.992L431.908,195.887C431.962,196.623 431.551,197.333 430.646,197.856L399.944,215.582C399.038,216.104 397.808,216.342 396.532,216.311L396.532,179.549Z" style="fill:rgb(56,109,171);fill-rule:nonzero;"/>
            <path d="M429.217,184.993L431.908,184.992L431.908,195.887C431.962,196.623 431.551,197.333 430.646,197.856L429.217,198.681L429.217,184.993Z" style="fill:rgb(85,147,206);fill-rule:nonzero;"/>
            <path d="M399.471,215.813C397.846,216.51 395.495,216.471 393.595,215.746L393.595,203.376L399.471,203.376L399.471,215.813Z" style="fill:rgb(85,147,206);fill-rule:nonzero;"/>
            <path d="M399.944,204.727L430.646,187.001C432.529,185.913 432.294,184.013 430.118,182.756L400.473,165.641C398.297,164.385 395.006,164.249 393.121,165.336L362.42,183.062C360.535,184.15 360.771,186.05 362.947,187.306L392.593,204.422C394.769,205.678 398.06,205.814 399.944,204.727Z" style="fill:rgb(212,235,250);fill-rule:nonzero;"/>
            <path d="M399.392,201.536L425.119,186.682C426.698,185.77 426.501,184.178 424.678,183.125L399.835,168.782C398.012,167.729 395.253,167.615 393.674,168.527L367.946,183.381C366.367,184.292 366.564,185.885 368.388,186.938L393.23,201.28C395.054,202.333 397.813,202.447 399.392,201.536Z" style="fill:rgb(85,147,206);fill-rule:nonzero;"/>
            <path d="M372.45,198.42C372.45,199.211 373.005,200.172 373.69,200.568C374.375,200.963 374.93,200.643 374.93,199.852C374.93,199.062 374.375,198.1 373.69,197.704C373.005,197.309 372.45,197.629 372.45,198.42Z" style="fill:rgb(212,235,250);fill-rule:nonzero;"/>
            <path d="M368.46,196.117C368.46,196.908 369.016,197.869 369.7,198.265C370.385,198.66 370.94,198.339 370.94,197.549C370.94,196.758 370.385,195.796 369.7,195.401C369.016,195.005 368.46,195.326 368.46,196.117Z" style="fill:rgb(85,147,206);fill-rule:nonzero;"/>
            <path d="M364.471,193.813C364.471,194.604 365.025,195.565 365.711,195.961C366.396,196.356 366.95,196.036 366.95,195.245C366.95,194.455 366.396,193.493 365.711,193.097C365.025,192.702 364.471,193.022 364.471,193.813Z" style="fill:rgb(85,147,206);fill-rule:nonzero;"/>
            <path d="M361.157,178.696L361.157,168.103L384.911,168.089L393.121,163.349C395.006,162.261 398.297,162.397 400.473,163.654L408.133,168.077L431.908,168.063L431.908,178.958C431.962,179.694 431.551,180.405 430.646,180.927L399.944,198.653C398.06,199.741 394.769,199.604 392.593,198.348L362.947,181.233C361.692,180.508 361.087,179.57 361.157,178.696Z" style="fill:rgb(56,109,171);fill-rule:nonzero;"/>
            <path d="M396.532,162.62C397.911,162.654 399.343,163.001 400.473,163.654L408.133,168.077L431.908,168.063L431.908,178.958C431.962,179.694 431.551,180.405 430.646,180.927L399.944,198.653C399.038,199.176 397.808,199.413 396.532,199.382L396.532,162.62Z" style="fill:rgb(56,109,171);fill-rule:nonzero;"/>
            <path d="M429.217,168.064L431.908,168.063L431.908,178.958C431.962,179.694 431.551,180.405 430.646,180.927L429.217,181.752L429.217,168.064Z" style="fill:rgb(85,147,206);fill-rule:nonzero;"/>
            <path d="M399.471,198.885C397.846,199.581 395.495,199.542 393.595,198.817L393.595,186.447L399.471,186.447L399.471,198.885Z" style="fill:rgb(85,147,206);fill-rule:nonzero;"/>
            <path d="M399.944,187.798L430.646,170.072C432.529,168.984 432.294,167.084 430.118,165.828L400.473,148.712C398.297,147.456 395.006,147.32 393.121,148.408L362.42,166.133C360.535,167.221 360.771,169.121 362.947,170.377L392.593,187.493C394.769,188.749 398.06,188.886 399.944,187.798Z" style="fill:rgb(212,235,250);fill-rule:nonzero;"/>
            <path d="M362.947,168.293L392.593,185.408C394.769,186.665 398.06,186.801 399.944,185.713L430.646,167.987C431.065,167.745 431.374,167.46 431.586,167.153C432.233,168.195 431.939,169.325 430.646,170.072L399.944,187.798C398.06,188.886 394.769,188.749 392.593,187.493L362.947,170.377C361.257,169.401 360.743,168.038 361.479,166.967C361.775,167.442 362.266,167.899 362.947,168.293Z" style="fill:white;fill-rule:nonzero;"/>
            <path d="M372.45,181.492C372.45,182.282 373.005,183.244 373.69,183.639C374.375,184.035 374.93,183.714 374.93,182.923C374.93,182.133 374.375,181.171 373.69,180.775C373.005,180.38 372.45,180.701 372.45,181.492Z" style="fill:rgb(85,147,206);fill-rule:nonzero;"/>
            <path d="M368.46,179.188C368.46,179.979 369.016,180.94 369.7,181.336C370.385,181.731 370.94,181.411 370.94,180.62C370.94,179.829 370.385,178.868 369.7,178.472C369.016,178.077 368.46,178.397 368.46,179.188Z" style="fill:rgb(212,235,250);fill-rule:nonzero;"/>
            <path d="M364.471,176.884C364.471,177.675 365.025,178.637 365.711,179.032C366.396,179.428 366.95,179.107 366.95,178.316C366.95,177.525 366.396,176.564 365.711,176.168C365.025,175.773 364.471,176.094 364.471,176.884Z" style="fill:rgb(212,235,250);fill-rule:nonzero;"/>
            <path d="M398.129,176.808L412.495,168.513C413.377,168.004 413.267,167.115 412.248,166.527L398.376,158.518C397.357,157.93 395.817,157.866 394.936,158.375L380.569,166.67C379.688,167.179 379.798,168.068 380.816,168.656L394.688,176.666C395.707,177.253 397.247,177.317 398.129,176.808Z" style="fill:rgb(85,147,206);fill-rule:nonzero;"/>
            <path d="M396.753,169.863L398.741,168.715C398.863,168.645 398.848,168.522 398.707,168.44L396.787,167.333C396.646,167.251 396.434,167.242 396.312,167.313L394.323,168.46C394.202,168.531 394.217,168.654 394.357,168.735L396.277,169.843C396.418,169.925 396.631,169.934 396.753,169.863Z" style="fill:rgb(212,235,250);fill-rule:nonzero;"/>
            <path d="M412.495,168.514L412.455,168.537L412.248,168.395L398.376,160.386C397.357,159.798 395.817,159.734 394.936,160.243L380.609,168.514C379.797,167.933 379.755,167.141 380.569,166.67L394.936,158.375C395.817,157.866 397.357,157.93 398.376,158.518L412.248,166.527C413.267,167.115 413.377,168.004 412.495,168.514Z" style="fill:rgb(56,109,171);fill-rule:nonzero;"/>
            <path d="M453.398,271.096L477.916,256.94C479.421,256.072 479.231,254.555 477.494,253.551L453.82,239.883C452.083,238.88 449.454,238.771 447.95,239.64L423.432,253.795C421.928,254.664 422.116,256.182 423.854,257.185L447.527,270.853C449.265,271.855 451.894,271.965 453.398,271.096Z" style="fill-opacity:0.34;fill-rule:nonzero;"/>
            <path d="M415.299,243.014L415.299,232.42L439.052,232.407L447.263,227.667C449.146,226.579 452.438,226.715 454.614,227.972L462.274,232.394L486.049,232.381L486.049,243.275C486.103,244.012 485.692,244.723 484.787,245.245L454.085,262.971C452.201,264.059 448.909,263.922 446.733,262.666L417.089,245.55C415.834,244.825 415.229,243.887 415.299,243.014Z" style="fill:rgb(56,109,171);fill-rule:nonzero;"/>
            <path d="M450.674,226.938C452.053,226.971 453.483,227.318 454.614,227.972L462.274,232.394L486.049,232.381L486.049,243.275C486.103,244.012 485.692,244.723 484.787,245.245L454.085,262.971C453.18,263.493 451.949,263.73 450.674,263.699L450.674,226.938Z" style="fill:rgb(56,109,171);fill-rule:nonzero;"/>
            <path d="M483.358,232.382L486.049,232.381L486.049,243.275C486.103,244.012 485.692,244.723 484.787,245.245L483.358,246.069L483.358,232.382Z" style="fill:rgb(85,147,206);fill-rule:nonzero;"/>
            <path d="M453.612,263.202C451.987,263.898 449.636,263.859 447.735,263.135L447.735,250.765L453.612,250.765L453.612,263.202Z" style="fill:rgb(85,147,206);fill-rule:nonzero;"/>
            <path d="M454.085,252.115L484.787,234.39C486.671,233.302 486.435,231.401 484.259,230.146L454.614,213.03C452.438,211.773 449.146,211.637 447.263,212.725L416.562,230.45C414.677,231.538 414.913,233.438 417.089,234.695L446.733,251.811C448.909,253.066 452.201,253.203 454.085,252.115Z" style="fill:rgb(212,235,250);fill-rule:nonzero;"/>
            <path d="M453.532,248.925L479.261,234.07C480.84,233.159 480.642,231.566 478.818,230.514L453.976,216.171C452.152,215.118 449.395,215.004 447.815,215.915L422.087,230.77C420.508,231.682 420.706,233.273 422.529,234.326L447.372,248.669C449.195,249.722 451.953,249.836 453.532,248.925Z" style="fill:rgb(85,147,206);fill-rule:nonzero;"/>
            <path d="M426.591,245.809C426.591,246.6 427.146,247.562 427.831,247.957C428.516,248.353 429.071,248.031 429.071,247.241C429.071,246.45 428.516,245.488 427.831,245.093C427.146,244.697 426.591,245.019 426.591,245.809Z" style="fill:rgb(212,235,250);fill-rule:nonzero;"/>
            <path d="M422.602,243.506C422.602,244.296 423.156,245.258 423.842,245.653C424.526,246.049 425.082,245.729 425.082,244.938C425.082,244.146 424.526,243.185 423.842,242.79C423.156,242.395 422.602,242.715 422.602,243.506Z" style="fill:rgb(85,147,206);fill-rule:nonzero;"/>
            <path d="M418.611,241.202C418.611,241.993 419.167,242.954 419.852,243.35C420.536,243.745 421.092,243.425 421.092,242.634C421.092,241.843 420.536,240.882 419.852,240.486C419.167,240.091 418.611,240.411 418.611,241.202Z" style="fill:rgb(212,235,250);fill-rule:nonzero;"/>
            <path d="M415.299,226.085L415.299,215.491L439.052,215.479L447.263,210.738C449.146,209.65 452.438,209.786 454.614,211.043L462.274,215.465L486.049,215.452L486.049,226.347C486.103,227.083 485.692,227.794 484.787,228.316L454.085,246.042C452.201,247.13 448.909,246.993 446.733,245.737L417.089,228.621C415.834,227.896 415.229,226.958 415.299,226.085Z" style="fill:rgb(56,109,171);fill-rule:nonzero;"/>
            <path d="M450.674,210.009C452.053,210.042 453.483,210.39 454.614,211.043L462.274,215.465L486.049,215.452L486.049,226.347C486.103,227.083 485.692,227.794 484.787,228.316L454.085,246.042C453.18,246.564 451.949,246.802 450.674,246.771L450.674,210.009Z" style="fill:rgb(56,109,171);fill-rule:nonzero;"/>
            <path d="M483.358,215.453L486.049,215.452L486.049,226.347C486.103,227.083 485.692,227.794 484.787,228.316L483.358,229.141L483.358,215.453Z" style="fill:rgb(85,147,206);fill-rule:nonzero;"/>
            <path d="M453.612,246.273C451.987,246.97 449.636,246.931 447.735,246.206L447.735,233.836L453.612,233.836L453.612,246.273Z" style="fill:rgb(85,147,206);fill-rule:nonzero;"/>
            <path d="M454.085,235.187L484.787,217.461C486.671,216.373 486.435,214.473 484.259,213.217L454.614,196.101C452.438,194.845 449.146,194.708 447.263,195.796L416.562,213.521C414.677,214.609 414.913,216.51 417.089,217.767L446.733,234.882C448.909,236.138 452.201,236.274 454.085,235.187Z" style="fill:rgb(212,235,250);fill-rule:nonzero;"/>
            <path d="M453.532,231.996L479.261,217.142C480.84,216.23 480.642,214.638 478.818,213.585L453.976,199.242C452.152,198.189 449.395,198.075 447.815,198.987L422.087,213.841C420.508,214.753 420.706,216.345 422.529,217.397L447.372,231.74C449.195,232.793 451.953,232.907 453.532,231.996Z" style="fill:rgb(85,147,206);fill-rule:nonzero;"/>
            <path d="M426.591,228.88C426.591,229.671 427.146,230.633 427.831,231.028C428.516,231.424 429.071,231.103 429.071,230.313C429.071,229.521 428.516,228.56 427.831,228.164C427.146,227.769 426.591,228.09 426.591,228.88Z" style="fill:rgb(212,235,250);fill-rule:nonzero;"/>
            <path d="M422.602,226.577C422.602,227.367 423.156,228.329 423.842,228.725C424.526,229.12 425.082,228.8 425.082,228.009C425.082,227.218 424.526,226.256 423.842,225.861C423.156,225.466 422.602,225.786 422.602,226.577Z" style="fill:rgb(212,235,250);fill-rule:nonzero;"/>
            <path d="M418.611,224.273C418.611,225.064 419.167,226.025 419.852,226.421C420.536,226.816 421.092,226.496 421.092,225.705C421.092,224.914 420.536,223.953 419.852,223.558C419.167,223.162 418.611,223.482 418.611,224.273Z" style="fill:rgb(85,147,206);fill-rule:nonzero;"/>
            <path d="M415.299,209.156L415.299,198.563L439.052,198.549L447.263,193.809C449.146,192.721 452.438,192.857 454.614,194.114L462.274,198.537L486.049,198.523L486.049,209.418C486.103,210.154 485.692,210.864 484.787,211.388L454.085,229.113C452.201,230.201 448.909,230.064 446.733,228.809L417.089,211.692C415.834,210.968 415.229,210.029 415.299,209.156Z" style="fill:rgb(56,109,171);fill-rule:nonzero;"/>
            <path d="M450.674,193.08C452.053,193.114 453.483,193.461 454.614,194.114L462.274,198.537L486.049,198.523L486.049,209.418C486.103,210.154 485.692,210.864 484.787,211.388L454.085,229.113C453.18,229.636 451.949,229.873 450.674,229.842L450.674,193.08Z" style="fill:rgb(56,109,171);fill-rule:nonzero;"/>
            <path d="M483.358,198.525L486.049,198.523L486.049,209.418C486.103,210.154 485.692,210.864 484.787,211.388L483.358,212.212L483.358,198.525Z" style="fill:rgb(85,147,206);fill-rule:nonzero;"/>
            <path d="M453.612,229.345C451.987,230.041 449.636,230.002 447.735,229.277L447.735,216.907L453.612,216.907L453.612,229.345Z" style="fill:rgb(85,147,206);fill-rule:nonzero;"/>
            <path d="M454.085,218.258L484.787,200.532C486.671,199.444 486.435,197.544 484.259,196.288L454.614,179.172C452.438,177.916 449.146,177.78 447.263,178.868L416.562,196.593C414.677,197.681 414.913,199.582 417.089,200.837L446.733,217.953C448.909,219.209 452.201,219.346 454.085,218.258Z" style="fill:rgb(212,235,250);fill-rule:nonzero;"/>
            <path d="M417.089,198.753L446.733,215.868C448.909,217.124 452.201,217.261 454.085,216.173L484.787,198.447C485.207,198.205 485.516,197.92 485.727,197.613C486.374,198.655 486.081,199.785 484.787,200.532L454.085,218.258C452.201,219.346 448.909,219.209 446.733,217.953L417.089,200.837C415.398,199.861 414.885,198.498 415.621,197.427C415.916,197.902 416.407,198.359 417.089,198.753Z" style="fill:white;fill-rule:nonzero;"/>
            <path d="M426.591,211.951C426.591,212.742 427.146,213.704 427.831,214.1C428.516,214.495 429.071,214.174 429.071,213.384C429.071,212.593 428.516,211.631 427.831,211.235C427.146,210.84 426.591,211.161 426.591,211.951Z" style="fill:rgb(85,147,206);fill-rule:nonzero;"/>
            <path d="M422.602,209.648C422.602,210.438 423.156,211.4 423.842,211.796C424.526,212.191 425.082,211.871 425.082,211.08C425.082,210.289 424.526,209.327 423.842,208.932C423.156,208.537 422.602,208.857 422.602,209.648Z" style="fill:rgb(85,147,206);fill-rule:nonzero;"/>
            <path d="M418.611,207.345C418.611,208.136 419.167,209.097 419.852,209.492C420.536,209.888 421.092,209.567 421.092,208.776C421.092,207.985 420.536,207.024 419.852,206.629C419.167,206.233 418.611,206.554 418.611,207.345Z" style="fill:rgb(212,235,250);fill-rule:nonzero;"/>
            <path d="M452.27,207.269L466.637,198.974C467.519,198.464 467.408,197.575 466.39,196.987L452.518,188.978C451.499,188.39 449.959,188.327 449.077,188.835L434.71,197.13C433.828,197.639 433.939,198.528 434.957,199.116L448.83,207.126C449.848,207.713 451.388,207.777 452.27,207.269Z" style="fill:rgb(85,147,206);fill-rule:nonzero;"/>
            <path d="M450.895,200.323L452.882,199.175C453.004,199.105 452.988,198.982 452.848,198.901L450.929,197.792C450.788,197.711 450.574,197.702 450.452,197.773L448.465,198.92C448.343,198.991 448.358,199.114 448.499,199.195L450.418,200.303C450.56,200.385 450.772,200.394 450.895,200.323Z" style="fill:rgb(212,235,250);fill-rule:nonzero;"/>
            <path d="M466.637,198.974L466.596,198.997L466.39,198.855L452.518,190.846C451.499,190.258 449.959,190.194 449.077,190.703L434.751,198.975C433.938,198.393 433.896,197.601 434.71,197.13L449.077,188.835C449.959,188.327 451.499,188.39 452.518,188.978L466.39,196.987C467.408,197.575 467.519,198.464 466.637,198.974Z" style="fill:rgb(56,109,171);fill-rule:nonzero;"/>
            <path d="M456.813,237.712C456.813,238.279 457.212,238.509 457.703,238.226C458.194,237.941 458.592,237.252 458.592,236.685C458.592,236.118 458.194,235.888 457.703,236.172C457.212,236.455 456.813,237.145 456.813,237.712Z" style="fill:rgb(212,235,250);fill-rule:nonzero;"/>
            <path d="M459.572,236.13C459.572,236.696 459.971,236.927 460.462,236.643C460.953,236.359 461.351,235.67 461.351,235.103C461.351,234.535 460.953,234.306 460.462,234.589C459.971,234.873 459.572,235.563 459.572,236.13Z" style="fill:rgb(212,235,250);fill-rule:nonzero;"/>
            <path d="M456.813,241.041C456.813,241.608 457.212,241.838 457.703,241.555C458.194,241.271 458.592,240.581 458.592,240.015C458.592,239.447 458.194,239.218 457.703,239.501C457.212,239.784 456.813,240.474 456.813,241.041Z" style="fill:rgb(212,235,250);fill-rule:nonzero;"/>
            <path d="M459.572,239.459C459.572,240.026 459.971,240.256 460.462,239.973C460.953,239.688 461.351,238.999 461.351,238.432C461.351,237.865 460.953,237.635 460.462,237.919C459.971,238.202 459.572,238.892 459.572,239.459Z" style="fill:rgb(85,147,206);fill-rule:nonzero;"/>
            <path d="M507.539,301.556L532.057,287.4C533.562,286.532 533.373,285.015 531.636,284.011L507.962,270.343C506.225,269.34 503.596,269.231 502.091,270.1L477.573,284.255C476.068,285.124 476.257,286.642 477.995,287.645L501.669,301.313C503.406,302.315 506.034,302.425 507.539,301.556Z" style="fill-opacity:0.34;fill-rule:nonzero;"/>
            <path d="M469.44,273.474L469.44,262.88L493.193,262.867L501.404,258.128C503.288,257.039 506.579,257.175 508.755,258.432L516.414,262.854L540.19,262.841L540.19,273.735C540.244,274.472 539.833,275.183 538.928,275.705L508.227,293.431C506.342,294.519 503.051,294.382 500.875,293.126L471.23,276.011C469.975,275.286 469.369,274.347 469.44,273.474Z" style="fill:rgb(56,109,171);fill-rule:nonzero;"/>
            <path d="M504.814,257.397C506.193,257.432 507.625,257.779 508.755,258.432L516.414,262.854L540.19,262.841L540.19,273.735C540.244,274.472 539.833,275.183 538.928,275.705L508.227,293.431C507.321,293.953 506.09,294.19 504.814,294.159L504.814,257.397Z" style="fill:rgb(56,109,171);fill-rule:nonzero;"/>
            <path d="M537.5,262.842L540.19,262.841L540.19,273.735C540.244,274.472 539.833,275.183 538.928,275.705L537.5,276.529L537.5,262.842Z" style="fill:rgb(85,147,206);fill-rule:nonzero;"/>
            <path d="M507.753,293.662C506.128,294.358 503.777,294.319 501.877,293.595L501.877,281.225L507.753,281.225L507.753,293.662Z" style="fill:rgb(85,147,206);fill-rule:nonzero;"/>
            <path d="M508.227,282.575L538.928,264.85C540.813,263.762 540.576,261.861 538.4,260.606L508.755,243.49C506.579,242.233 503.288,242.098 501.404,243.186L470.702,260.912C468.818,261.999 469.055,263.898 471.23,265.155L500.875,282.271C503.051,283.526 506.342,283.663 508.227,282.575Z" style="fill:rgb(212,235,250);fill-rule:nonzero;"/>
            <path d="M507.674,279.385L533.402,264.53C534.981,263.619 534.783,262.026 532.96,260.974L508.117,246.631C506.294,245.578 503.535,245.464 501.956,246.376L476.229,261.229C474.649,262.142 474.848,263.733 476.671,264.786L501.514,279.13C503.337,280.182 506.095,280.297 507.674,279.385Z" style="fill:rgb(85,147,206);fill-rule:nonzero;"/>
            <path d="M480.732,276.269C480.732,277.06 481.288,278.021 481.973,278.417C482.657,278.813 483.213,278.491 483.213,277.701C483.213,276.91 482.657,275.948 481.973,275.553C481.288,275.157 480.732,275.479 480.732,276.269Z" style="fill:rgb(212,235,250);fill-rule:nonzero;"/>
            <path d="M476.742,273.966C476.742,274.756 477.298,275.718 477.982,276.113C478.668,276.509 479.223,276.188 479.223,275.397C479.223,274.606 478.668,273.645 477.982,273.25C477.298,272.854 476.742,273.175 476.742,273.966Z" style="fill:rgb(85,147,206);fill-rule:nonzero;"/>
            <path d="M472.753,271.662C472.753,272.453 473.309,273.414 473.993,273.81C474.678,274.205 475.233,273.885 475.233,273.094C475.233,272.303 474.678,271.342 473.993,270.946C473.309,270.551 472.753,270.871 472.753,271.662Z" style="fill:rgb(212,235,250);fill-rule:nonzero;"/>
            <path d="M469.44,256.546L469.44,245.951L493.193,245.938L501.404,241.198C503.288,240.11 506.579,240.246 508.755,241.503L516.414,245.925L540.19,245.912L540.19,256.807C540.244,257.543 539.833,258.254 538.928,258.776L508.227,276.502C506.342,277.59 503.051,277.453 500.875,276.197L471.23,259.082C469.975,258.356 469.369,257.418 469.44,256.546Z" style="fill:rgb(56,109,171);fill-rule:nonzero;"/>
            <path d="M504.814,240.469C506.193,240.503 507.625,240.85 508.755,241.503L516.414,245.925L540.19,245.912L540.19,256.807C540.244,257.543 539.833,258.254 538.928,258.776L508.227,276.502C507.321,277.024 506.09,277.262 504.814,277.23L504.814,240.469Z" style="fill:rgb(56,109,171);fill-rule:nonzero;"/>
            <path d="M537.5,245.913L540.19,245.912L540.19,256.807C540.244,257.543 539.833,258.254 538.928,258.776L537.5,259.602L537.5,245.913Z" style="fill:rgb(85,147,206);fill-rule:nonzero;"/>
            <path d="M507.753,276.733C506.128,277.43 503.777,277.391 501.877,276.666L501.877,264.296L507.753,264.296L507.753,276.733Z" style="fill:rgb(85,147,206);fill-rule:nonzero;"/>
            <path d="M508.227,265.646L538.928,247.921C540.813,246.833 540.576,244.933 538.4,243.677L508.755,226.562C506.579,225.305 503.288,225.169 501.404,226.257L470.702,243.982C468.818,245.07 469.055,246.97 471.23,248.227L500.875,265.342C503.051,266.598 506.342,266.734 508.227,265.646Z" style="fill:rgb(212,235,250);fill-rule:nonzero;"/>
            <path d="M507.674,262.456L533.402,247.602C534.981,246.69 534.783,245.098 532.96,244.045L508.117,229.702C506.294,228.649 503.535,228.535 501.956,229.446L476.229,244.301C474.649,245.213 474.848,246.805 476.671,247.857L501.514,262.201C503.337,263.253 506.095,263.368 507.674,262.456Z" style="fill:rgb(85,147,206);fill-rule:nonzero;"/>
            <path d="M480.732,259.34C480.732,260.132 481.288,261.093 481.973,261.488C482.657,261.884 483.213,261.563 483.213,260.772C483.213,259.981 482.657,259.02 481.973,258.624C481.288,258.229 480.732,258.55 480.732,259.34Z" style="fill:rgb(85,147,206);fill-rule:nonzero;"/>
            <path d="M476.742,257.037C476.742,257.827 477.298,258.789 477.982,259.185C478.668,259.58 479.223,259.261 479.223,258.469C479.223,257.679 478.668,256.716 477.982,256.322C477.298,255.926 476.742,256.246 476.742,257.037Z" style="fill:rgb(85,147,206);fill-rule:nonzero;"/>
            <path d="M472.753,254.733C472.753,255.524 473.309,256.485 473.993,256.882C474.678,257.276 475.233,256.956 475.233,256.166C475.233,255.374 474.678,254.413 473.993,254.018C473.309,253.622 472.753,253.942 472.753,254.733Z" style="fill:rgb(212,235,250);fill-rule:nonzero;"/>
            <path d="M469.44,239.616L469.44,229.022L493.193,229.01L501.404,224.27C503.288,223.182 506.579,223.317 508.755,224.574L516.414,228.996L540.19,228.983L540.19,239.878C540.244,240.614 539.833,241.325 538.928,241.848L508.227,259.573C506.342,260.662 503.051,260.524 500.875,259.27L471.23,242.153C469.975,241.428 469.369,240.489 469.44,239.616Z" style="fill:rgb(56,109,171);fill-rule:nonzero;"/>
            <path d="M504.814,223.54C506.193,223.574 507.625,223.921 508.755,224.574L516.414,228.996L540.19,228.983L540.19,239.878C540.244,240.614 539.833,241.325 538.928,241.848L508.227,259.573C507.321,260.097 506.09,260.333 504.814,260.302L504.814,223.54Z" style="fill:rgb(56,109,171);fill-rule:nonzero;"/>
            <path d="M537.5,228.984L540.19,228.983L540.19,239.878C540.244,240.614 539.833,241.325 538.928,241.848L537.5,242.672L537.5,228.984Z" style="fill:rgb(85,147,206);fill-rule:nonzero;"/>
            <path d="M507.753,259.805C506.128,260.501 503.777,260.462 501.877,259.737L501.877,247.367L507.753,247.367L507.753,259.805Z" style="fill:rgb(85,147,206);fill-rule:nonzero;"/>
            <path d="M508.227,248.718L538.928,230.992C540.813,229.904 540.576,228.004 538.4,226.748L508.755,209.633C506.579,208.376 503.288,208.24 501.404,209.328L470.702,227.053C468.818,228.141 469.055,230.041 471.23,231.298L500.875,248.413C503.051,249.669 506.342,249.806 508.227,248.718Z" style="fill:rgb(212,235,250);fill-rule:nonzero;"/>
            <path d="M471.23,229.213L500.875,246.328C503.051,247.584 506.342,247.721 508.227,246.633L538.928,228.907C539.348,228.665 539.657,228.381 539.868,228.073C540.516,229.115 540.222,230.245 538.928,230.992L508.227,248.718C506.342,249.806 503.051,249.669 500.875,248.413L471.23,231.298C469.539,230.321 469.025,228.958 469.762,227.888C470.058,228.362 470.549,228.819 471.23,229.213Z" style="fill:white;fill-rule:nonzero;"/>
            <path d="M480.732,242.411C480.732,243.202 481.288,244.164 481.973,244.56C482.657,244.955 483.213,244.634 483.213,243.844C483.213,243.053 482.657,242.091 481.973,241.695C481.288,241.3 480.732,241.621 480.732,242.411Z" style="fill:rgb(212,235,250);fill-rule:nonzero;"/>
            <path d="M476.742,240.108C476.742,240.898 477.298,241.86 477.982,242.256C478.668,242.651 479.223,242.331 479.223,241.54C479.223,240.749 478.668,239.787 477.982,239.393C477.298,238.997 476.742,239.317 476.742,240.108Z" style="fill:rgb(212,235,250);fill-rule:nonzero;"/>
            <path d="M472.753,237.805C472.753,238.596 473.309,239.557 473.993,239.952C474.678,240.348 475.233,240.027 475.233,239.236C475.233,238.445 474.678,237.484 473.993,237.089C473.309,236.693 472.753,237.014 472.753,237.805Z" style="fill:rgb(85,147,206);fill-rule:nonzero;"/>
            <path d="M506.411,237.729L520.778,229.434C521.659,228.925 521.549,228.035 520.531,227.447L506.658,219.438C505.641,218.851 504.101,218.786 503.219,219.296L488.852,227.59C487.97,228.1 488.08,228.988 489.099,229.576L502.971,237.586C503.989,238.174 505.529,238.237 506.411,237.729Z" style="fill:rgb(85,147,206);fill-rule:nonzero;"/>
            <path d="M505.035,230.783L507.023,229.636C507.146,229.565 507.13,229.442 506.989,229.36L505.069,228.253C504.929,228.171 504.716,228.162 504.594,228.232L502.606,229.381C502.484,229.451 502.499,229.574 502.641,229.655L504.56,230.764C504.7,230.845 504.913,230.854 505.035,230.783Z" style="fill:rgb(212,235,250);fill-rule:nonzero;"/>
            <path d="M520.778,229.434L520.737,229.457L520.531,229.315L506.658,221.306C505.641,220.718 504.101,220.654 503.219,221.163L488.893,229.435C488.079,228.853 488.037,228.061 488.852,227.59L503.219,219.296C504.101,218.786 505.641,218.851 506.658,219.438L520.531,227.447C521.549,228.035 521.659,228.925 520.778,229.434Z" style="fill:rgb(56,109,171);fill-rule:nonzero;"/>
            <path d="M510.563,251.485C510.563,252.052 510.962,252.282 511.453,251.998C511.944,251.715 512.341,251.025 512.341,250.458C512.341,249.891 511.944,249.661 511.453,249.944C510.962,250.229 510.563,250.918 510.563,251.485Z" style="fill:rgb(212,235,250);fill-rule:nonzero;"/>
            <path d="M513.322,249.902C513.322,250.47 513.721,250.699 514.211,250.416C514.703,250.133 515.101,249.442 515.101,248.876C515.101,248.309 514.703,248.079 514.211,248.362C513.721,248.646 513.322,249.336 513.322,249.902Z" style="fill:rgb(212,235,250);fill-rule:nonzero;"/>
            <path d="M510.563,254.814C510.563,255.382 510.962,255.611 511.453,255.328C511.944,255.044 512.341,254.354 512.341,253.787C512.341,253.221 511.944,252.99 511.453,253.274C510.962,253.558 510.563,254.247 510.563,254.814Z" style="fill:rgb(212,235,250);fill-rule:nonzero;"/>
            <path d="M513.322,253.232C513.322,253.799 513.721,254.029 514.211,253.745C514.703,253.462 515.101,252.772 515.101,252.205C515.101,251.638 514.703,251.408 514.211,251.691C513.721,251.976 513.322,252.665 513.322,253.232Z" style="fill:rgb(85,147,206);fill-rule:nonzero;"/>
            <path d="M510.563,268.414C510.563,268.98 510.962,269.211 511.453,268.927C511.944,268.644 512.341,267.954 512.341,267.387C512.341,266.819 511.944,266.59 511.453,266.873C510.962,267.157 510.563,267.847 510.563,268.414Z" style="fill:rgb(85,147,206);fill-rule:nonzero;"/>
            <path d="M513.322,266.831C513.322,267.398 513.721,267.628 514.211,267.345C514.703,267.062 515.101,266.371 515.101,265.805C515.101,265.237 514.703,265.008 514.211,265.291C513.721,265.574 513.322,266.265 513.322,266.831Z" style="fill:rgb(212,235,250);fill-rule:nonzero;"/>
            <path d="M510.563,271.743C510.563,272.311 510.962,272.54 511.453,272.257C511.944,271.973 512.341,271.283 512.341,270.716C512.341,270.149 511.944,269.919 511.453,270.203C510.962,270.486 510.563,271.176 510.563,271.743Z" style="fill:rgb(85,147,206);fill-rule:nonzero;"/>
            <path d="M513.322,270.161C513.322,270.728 513.721,270.958 514.211,270.674C514.703,270.391 515.101,269.701 515.101,269.134C515.101,268.566 514.703,268.337 514.211,268.62C513.721,268.904 513.322,269.594 513.322,270.161Z" style="fill:rgb(212,235,250);fill-rule:nonzero;"/>
            <path d="M510.563,285.343C510.563,285.909 510.962,286.14 511.453,285.855C511.944,285.572 512.341,284.883 512.341,284.315C512.341,283.748 511.944,283.519 511.453,283.802C510.962,284.086 510.563,284.775 510.563,285.343Z" style="fill:rgb(212,235,250);fill-rule:nonzero;"/>
            <path d="M513.322,283.76C513.322,284.327 513.721,284.557 514.211,284.273C514.703,283.99 515.101,283.3 515.101,282.733C515.101,282.166 514.703,281.937 514.211,282.22C513.721,282.503 513.322,283.193 513.322,283.76Z" style="fill:rgb(85,147,206);fill-rule:nonzero;"/>
            <path d="M510.563,288.672C510.563,289.239 510.962,289.469 511.453,289.186C511.944,288.901 512.341,288.212 512.341,287.645C512.341,287.078 511.944,286.848 511.453,287.132C510.962,287.415 510.563,288.104 510.563,288.672Z" style="fill:rgb(212,235,250);fill-rule:nonzero;"/>
            <path d="M513.322,287.09C513.322,287.656 513.721,287.887 514.211,287.603C514.703,287.319 515.101,286.63 515.101,286.063C515.101,285.495 514.703,285.266 514.211,285.549C513.721,285.833 513.322,286.522 513.322,287.09Z" style="fill:rgb(212,235,250);fill-rule:nonzero;"/>
            <path d="M509.689,197.63L511.681,196.828L510.132,195.637L509.689,197.63Z" style="fill:rgb(85,147,206);fill-rule:nonzero;"/>
            <path d="M508.693,176.051L510.628,175.267L510.491,176.078L508.693,176.051Z" style="fill:rgb(85,147,206);fill-rule:nonzero;"/>
            <path d="M515.943,192.586L517.963,191.772L515.02,188.809L515.943,192.586Z" style="fill:rgb(85,147,206);fill-rule:nonzero;"/>
            <path d="M511.157,196.777L503.442,192.322C503.051,192.096 502.814,191.527 502.915,191.051L504.764,182.294L513.896,187.568L512.049,196.324C511.948,196.8 511.549,197.003 511.157,196.777Z" style="fill:rgb(85,147,206);fill-rule:nonzero;"/>
            <path d="M510.607,175.276L500.182,180.532C499.739,180.755 499.886,181.587 500.423,181.897L508.934,186.811L517.443,191.724C517.981,192.034 518.409,191.535 518.146,190.905L511.965,176.06C511.698,175.419 511.058,175.049 510.607,175.276Z" style="fill:rgb(85,147,206);fill-rule:nonzero;"/>
            <path d="M509.135,197.594L501.419,193.139C501.027,192.913 500.792,192.344 500.893,191.867L502.741,183.111L511.874,188.384L510.025,197.141C509.925,197.617 509.526,197.82 509.135,197.594Z" style="fill:rgb(212,235,250);fill-rule:nonzero;"/>
            <path d="M508.584,176.093L498.158,181.349C497.716,181.572 497.863,182.404 498.4,182.714L506.911,187.627L515.421,192.541C515.958,192.851 516.387,192.352 516.124,191.722L509.942,176.877C509.675,176.235 509.034,175.866 508.584,176.093Z" style="fill:rgb(212,235,250);fill-rule:nonzero;"/>
            <path d="M456.152,166.919L458.145,166.117L456.595,164.926L456.152,166.919Z" style="fill:rgb(85,147,206);fill-rule:nonzero;"/>
            <path d="M455.156,145.34L457.092,144.556L456.955,145.367L455.156,145.34Z" style="fill:rgb(85,147,206);fill-rule:nonzero;"/>
            <path d="M462.407,161.875L464.426,161.061L461.482,158.098L462.407,161.875Z" style="fill:rgb(85,147,206);fill-rule:nonzero;"/>
            <path d="M457.621,166.066L449.905,161.611C449.514,161.385 449.278,160.816 449.379,160.34L451.227,151.583L460.36,156.857L458.512,165.613C458.411,166.089 458.013,166.292 457.621,166.066Z" style="fill:rgb(85,147,206);fill-rule:nonzero;"/>
            <path d="M457.07,144.565L446.645,149.821C446.202,150.044 446.35,150.876 446.887,151.186L455.396,156.1L463.907,161.013C464.444,161.323 464.873,160.824 464.61,160.194L458.428,145.349C458.161,144.708 457.521,144.338 457.07,144.565Z" style="fill:rgb(85,147,206);fill-rule:nonzero;"/>
            <path d="M455.598,166.882L447.883,162.428C447.491,162.202 447.255,161.633 447.355,161.156L449.204,152.4L458.338,157.673L456.489,166.43C456.389,166.906 455.989,167.108 455.598,166.882Z" style="fill:rgb(212,235,250);fill-rule:nonzero;"/>
            <path d="M455.048,145.382L444.622,150.638C444.18,150.861 444.326,151.693 444.863,152.003L453.374,156.916L461.885,161.83C462.422,162.14 462.85,161.641 462.587,161.011L456.405,146.166C456.139,145.524 455.498,145.155 455.048,145.382Z" style="fill:rgb(212,235,250);fill-rule:nonzero;"/>
            <path d="M270.496,288.113L328.481,254.798C333.055,252.171 341.032,252.518 346.3,255.574L465.216,324.563C470.483,327.62 471.046,332.228 466.474,334.854L408.487,368.17C403.914,370.798 395.938,370.45 390.669,367.395L271.754,298.404C266.486,295.349 265.923,290.741 270.496,288.113Z" style="fill-opacity:0.34;fill-rule:nonzero;"/>
            <path d="M410.798,357.158L470.178,323.042C472.776,321.548 474.084,319.558 474.15,317.461L474.152,317.462L474.203,307.239L472.295,310.528C471.381,309.459 470.14,308.439 468.569,307.528L348.994,238.156C342.22,234.226 331.959,233.779 326.078,237.158L266.698,271.274C266.068,271.637 265.519,272.029 265.04,272.444L262.764,269.527L262.715,279.137L262.717,279.134C262.633,281.78 264.526,284.595 268.308,286.788L387.882,356.16C394.657,360.091 404.917,360.537 410.798,357.158Z" style="fill:rgb(56,109,171);fill-rule:nonzero;"/>
            <path d="M266.74,263.678L326.12,229.562C332.001,226.183 342.262,226.629 349.036,230.56L468.61,299.932C475.386,303.862 476.11,309.788 470.229,313.167L410.85,347.283C404.968,350.662 394.708,350.216 387.933,346.285L268.358,276.913C261.583,272.982 260.859,267.058 266.74,263.678Z" style="fill:rgb(212,235,250);fill-rule:nonzero;"/>
            <path d="M470.229,313.167L410.85,347.283C404.968,350.663 394.708,350.216 387.933,346.285L268.358,276.913C265.077,275.01 263.229,272.638 262.85,270.314C262.376,273.155 264.244,276.276 268.358,278.663L387.933,348.035C394.708,351.966 404.968,352.413 410.85,349.033L470.229,314.917C473.261,313.175 474.523,310.755 474.12,308.281C473.814,310.118 472.538,311.84 470.229,313.167Z" style="fill:white;fill-rule:nonzero;"/>
            <path d="M270.496,265.052L328.481,231.736C333.055,229.108 341.032,229.456 346.3,232.513L465.216,301.502C470.483,304.558 471.046,309.165 466.474,311.793L408.487,345.108C403.914,347.736 395.938,347.389 390.669,344.333L271.754,275.343C266.486,272.287 265.923,267.68 270.496,265.052Z" style="fill:white;fill-rule:nonzero;"/>
            <path d="M483.788,120.596C483.788,121.163 483.39,121.393 482.898,121.109C482.407,120.826 482.01,120.136 482.01,119.569C482.01,119.002 482.407,118.772 482.898,119.056C483.39,119.339 483.788,120.029 483.788,120.596Z" style="fill:rgb(212,235,250);fill-rule:nonzero;"/>
            <path d="M496.08,127.234C496.08,127.801 495.682,128.031 495.19,127.748C494.699,127.464 494.301,126.774 494.301,126.208C494.301,125.64 494.699,125.41 495.19,125.694C495.682,125.978 496.08,126.667 496.08,127.234Z" style="fill:rgb(212,235,250);fill-rule:nonzero;"/>
            <path d="M363.915,277.172L342.449,264.779C341.653,264.319 341.753,263.517 342.673,262.986C343.592,262.455 344.981,262.397 345.777,262.857L367.243,275.251C368.039,275.71 367.939,276.513 367.021,277.043C366.102,277.574 364.711,277.632 363.915,277.172Z" style="fill:rgb(179,211,235);fill-rule:nonzero;"/>
            <path d="M343.569,272.975L335.912,268.554C335.116,268.094 335.216,267.291 336.135,266.761C337.054,266.23 338.444,266.173 339.24,266.632L346.897,271.053C347.693,271.513 347.594,272.315 346.674,272.846C345.755,273.376 344.365,273.434 343.569,272.975Z" style="fill:rgb(179,211,235);fill-rule:nonzero;"/>
            <path d="M356.419,280.394L348.762,275.973C347.966,275.513 348.066,274.71 348.985,274.18C349.904,273.649 351.294,273.592 352.091,274.051L359.747,278.472C360.544,278.932 360.443,279.734 359.524,280.265C358.605,280.796 357.215,280.854 356.419,280.394Z" style="fill:rgb(56,109,171);fill-rule:nonzero;"/>
            <path d="M382.403,295.396L361.612,283.392C360.816,282.933 360.916,282.13 361.835,281.599C362.755,281.068 364.145,281.011 364.94,281.47L385.731,293.474C386.527,293.934 386.428,294.736 385.509,295.267C384.59,295.797 383.199,295.854 382.403,295.396Z" style="fill:rgb(179,211,235);fill-rule:nonzero;"/>
            <path d="M356.194,287.813L329.374,272.328C328.578,271.868 328.678,271.065 329.597,270.535C330.516,270.005 331.906,269.947 332.702,270.406L359.522,285.891C360.318,286.351 360.219,287.153 359.3,287.684L359.299,287.684C358.38,288.215 356.99,288.272 356.194,287.813Z" style="fill:rgb(179,211,235);fill-rule:nonzero;"/>
            <path d="M388.449,313.987L322.836,276.103C322.04,275.643 322.141,274.841 323.06,274.31C323.979,273.779 325.368,273.722 326.165,274.181L391.777,312.066C392.573,312.525 392.474,313.328 391.555,313.858C390.636,314.39 389.245,314.447 388.449,313.987Z" style="fill:rgb(56,109,171);fill-rule:nonzero;"/>
            <path d="M407.595,302.391L369.841,280.594C369.045,280.134 369.145,279.331 370.063,278.801C370.983,278.27 372.373,278.212 373.169,278.672L410.923,300.469C411.719,300.929 411.619,301.731 410.7,302.262C409.781,302.793 408.391,302.851 407.595,302.391Z" style="fill:rgb(179,211,235);fill-rule:nonzero;"/>
            <path d="M342.514,337.982L336.993,334.798C336.443,334.48 335.998,333.63 335.998,332.897C335.998,332.165 336.443,331.828 336.993,332.146L342.514,335.33C343.063,335.647 343.509,336.498 343.509,337.23C343.509,337.963 343.063,338.3 342.514,337.982Z" style="fill:rgb(212,235,250);fill-rule:nonzero;"/>
            <path d="M351.201,343.014L345.681,339.829C345.131,339.512 344.686,338.66 344.686,337.928C344.686,337.195 345.131,336.858 345.681,337.176L351.201,340.361C351.751,340.678 352.196,341.529 352.196,342.262C352.196,342.994 351.751,343.331 351.201,343.014Z" style="fill:rgb(212,235,250);fill-rule:nonzero;"/>
            <path d="M461.017,324.3C461.017,325.453 460.207,326.855 459.209,327.432C458.21,328.008 457.4,327.541 457.4,326.388C457.4,325.235 458.21,323.833 459.209,323.257C460.207,322.68 461.017,323.147 461.017,324.3Z" style="fill:rgb(179,211,235);fill-rule:nonzero;"/>
            <path d="M414.331,174.049L416.318,172.901C416.44,172.831 416.426,172.708 416.284,172.626L414.365,171.519C414.225,171.437 414.011,171.428 413.89,171.499L411.901,172.646C411.779,172.717 411.795,172.84 411.936,172.921L413.854,174.029C413.996,174.11 414.209,174.119 414.331,174.049Z" style="fill:rgb(56,109,171);fill-rule:nonzero;"/>
            <path d="M409.749,176.694L411.736,175.546C411.858,175.476 411.844,175.353 411.702,175.272L409.783,174.164C409.643,174.083 409.43,174.074 409.308,174.144L407.319,175.292C407.197,175.362 407.213,175.485 407.354,175.566L409.273,176.674C409.414,176.756 409.627,176.765 409.749,176.694Z" style="fill:rgb(56,109,171);fill-rule:nonzero;"/>
            <path d="M405.167,179.339L407.155,178.192C407.276,178.122 407.262,177.999 407.121,177.917L405.201,176.809C405.061,176.728 404.848,176.719 404.726,176.789L402.737,177.937C402.615,178.007 402.631,178.13 402.771,178.212L404.691,179.32C404.832,179.401 405.045,179.41 405.167,179.339Z" style="fill:rgb(56,109,171);fill-rule:nonzero;"/>
            <path d="M388.081,158.317L390.068,157.17C390.19,157.1 390.176,156.977 390.034,156.895L388.115,155.787C387.975,155.706 387.761,155.697 387.64,155.767L385.651,156.915C385.529,156.985 385.545,157.108 385.686,157.189L387.604,158.298C387.746,158.379 387.959,158.388 388.081,158.317Z" style="fill:rgb(56,109,171);fill-rule:nonzero;"/>
            <path d="M383.499,160.963L385.486,159.815C385.608,159.745 385.594,159.622 385.452,159.541L383.533,158.432C383.393,158.351 383.18,158.342 383.058,158.413L381.069,159.56C380.947,159.63 380.963,159.753 381.104,159.835L383.023,160.943C383.164,161.024 383.377,161.033 383.499,160.963Z" style="fill:rgb(56,109,171);fill-rule:nonzero;"/>
            <path d="M378.917,163.608L380.905,162.46C381.026,162.39 381.012,162.267 380.871,162.186L378.951,161.078C378.811,160.996 378.598,160.987 378.476,161.058L376.487,162.206C376.365,162.276 376.381,162.399 376.521,162.48L378.441,163.588C378.582,163.67 378.795,163.679 378.917,163.608Z" style="fill:rgb(56,109,171);fill-rule:nonzero;"/>
        </g>
    </g>
</svg>
