<?xml version="1.0" encoding="UTF-8" standalone="no"?>
<!DOCTYPE svg PUBLIC "-//W3C//DTD SVG 1.1//EN" "http://www.w3.org/Graphics/SVG/1.1/DTD/svg11.dtd">
<svg width="100%" height="100%" viewBox="0 0 164 164" version="1.1" xmlns="http://www.w3.org/2000/svg" xmlns:xlink="http://www.w3.org/1999/xlink" xml:space="preserve" xmlns:serif="http://www.serif.com/" style="fill-rule:evenodd;clip-rule:evenodd;stroke-linejoin:round;stroke-miterlimit:2;">
    <g transform="matrix(1,0,0,1,-1992,-3595)">
        <g transform="matrix(4.16667,0,0,4.16667,0,0)">
            <path d="M513.669,876.845C513.534,876.542 513.353,876.266 513.123,876.02C512.56,875.416 511.795,875.078 510.969,875.067C510.148,875.061 509.39,875.369 508.813,875.945C508.19,876.475 507.818,877.212 507.762,878.025C507.706,878.849 507.981,879.638 508.537,880.247C508.76,880.493 509.025,880.7 509.316,880.859L507.33,882.669L505.325,880.521C505.715,880.39 506.075,880.178 506.382,879.898C507.208,879.146 507.545,878.007 507.264,876.926C506.97,875.797 506.047,874.948 504.795,874.655C504.608,874.611 504.408,874.602 504.212,874.628C502.982,874.799 502.036,875.486 501.608,876.498L499.664,874.365L501.97,872.213C502.067,872.124 502.145,872.016 502.202,871.891C502.342,871.641 502.371,871.346 502.28,871.071C502.185,870.783 501.968,870.558 501.688,870.452C501.431,870.355 501.208,870.203 501.023,870C500.382,869.296 500.419,868.229 501.089,867.588C501.789,866.966 502.877,867.017 503.516,867.701C503.703,867.901 503.836,868.137 503.912,868.399C503.996,868.689 504.203,868.922 504.482,869.041C504.748,869.153 505.044,869.148 505.304,869.03C505.432,868.983 505.546,868.916 505.641,868.828L507.977,866.7L509.946,868.81C508.902,869.155 508.14,870.042 507.871,871.255C507.829,871.443 507.822,871.644 507.85,871.838C508.041,873.109 508.812,874.098 509.914,874.481C510.969,874.85 512.132,874.605 512.948,873.843C513.252,873.56 513.492,873.218 513.654,872.84L515.633,875.012L513.669,876.845ZM514.466,871.863C514.438,871.798 514.399,871.738 514.349,871.686L514.312,871.645C514.06,871.375 513.682,871.264 513.326,871.354C512.964,871.446 512.679,871.73 512.584,872.095C512.5,872.413 512.33,872.699 512.09,872.923C511.616,873.365 510.941,873.507 510.328,873.294C509.666,873.063 509.216,872.464 509.095,871.654C509.089,871.613 509.09,871.566 509.099,871.527C509.292,870.658 509.833,870.08 510.583,869.942C510.954,869.874 511.257,869.611 511.374,869.257C511.488,868.911 511.404,868.528 511.154,868.26L508.684,865.613C508.545,865.466 508.368,865.364 508.172,865.318C508.121,865.307 508.069,865.302 508.015,865.303C507.769,865.309 507.534,865.401 507.353,865.566L505,867.709C504.865,867.391 504.676,867.1 504.436,866.843C503.335,865.663 501.459,865.575 500.237,866.663C499.052,867.796 498.988,869.634 500.093,870.847C500.33,871.107 500.604,871.319 500.912,871.48L498.589,873.648C498.532,873.7 498.495,873.752 498.474,873.783C498.357,873.937 498.287,874.111 498.268,874.293C498.263,874.345 498.264,874.398 498.272,874.45C498.302,874.651 498.391,874.837 498.526,874.983L500.962,877.658C501.209,877.929 501.583,878.045 501.938,877.958C502.301,877.871 502.587,877.59 502.686,877.226C502.883,876.489 503.503,875.996 504.382,875.875C504.424,875.869 504.47,875.871 504.509,875.88C505.31,876.067 505.87,876.563 506.047,877.242C506.21,877.871 506.014,878.532 505.534,878.969C505.292,879.189 504.993,879.337 504.67,879.394C504.298,879.459 503.992,879.719 503.871,880.073C503.751,880.421 503.832,880.807 504.081,881.08L504.117,881.12C504.166,881.173 504.223,881.217 504.286,881.251L506.62,883.751C506.781,883.925 507.001,884.037 507.241,884.066C507.266,884.07 507.292,884.071 507.317,884.071C507.347,884.071 507.375,884.069 507.404,884.065C507.516,884.05 507.624,884.014 507.735,883.955C507.786,883.928 507.863,883.884 507.944,883.811L510.494,881.487C510.525,881.459 510.554,881.427 510.579,881.393C510.765,881.137 510.822,880.802 510.731,880.498C510.642,880.198 510.423,879.963 510.131,879.853C509.875,879.756 509.652,879.604 509.467,879.4C509.145,879.047 508.985,878.589 509.018,878.111C509.05,877.633 509.272,877.2 509.642,876.892C509.658,876.878 509.673,876.864 509.688,876.849C510.025,876.506 510.478,876.331 510.954,876.325C511.433,876.332 511.876,876.527 512.203,876.878C512.391,877.079 512.524,877.314 512.599,877.577C512.685,877.877 512.903,878.113 513.195,878.228C513.491,878.342 513.828,878.312 514.099,878.146C514.135,878.124 514.169,878.099 514.2,878.07L516.723,875.716C516.869,875.579 516.971,875.402 517.017,875.207C517.03,875.152 517.036,875.095 517.034,875.039C517.024,874.796 516.93,874.566 516.771,874.393L514.466,871.863Z" style="fill:rgb(0,145,255);fill-rule:nonzero;"/>
            <path d="M481.754,895.563C481.109,895.554 480.514,895.213 480.208,894.641C479.878,894.023 479.953,893.279 480.414,892.599C480.436,892.566 480.466,892.535 480.499,892.513C481.169,892.043 481.91,891.955 482.529,892.271C482.845,892.432 483.214,892.417 483.517,892.23C483.821,892.042 484.001,891.716 483.999,891.358L483.983,888.727L487.336,888.707C487.934,888.703 488.482,888.375 488.768,887.85C489.055,887.319 489.03,886.672 488.702,886.162C488.589,885.987 488.529,885.783 488.527,885.573C488.526,885.275 488.641,884.995 488.851,884.784C489.251,884.381 489.883,884.351 490.466,884.729C490.672,885.042 490.926,885.605 490.58,886.154C490.257,886.665 490.236,887.31 490.526,887.837C490.813,888.356 491.363,888.679 491.965,888.679L494.915,888.662L494.929,890.996C493.979,890.662 492.892,890.836 491.968,891.481C491.813,891.59 491.672,891.731 491.562,891.894C490.843,892.954 490.74,894.2 491.284,895.227C491.806,896.21 492.821,896.821 493.951,896.821C494.295,896.819 494.639,896.757 494.962,896.639L494.979,899.337C494.954,899.367 494.928,899.396 494.909,899.429L484.048,899.493L484.028,896.261C484.026,895.902 483.84,895.576 483.53,895.391C483.228,895.21 482.861,895.199 482.552,895.363C482.304,895.494 482.035,895.561 481.754,895.563ZM484.88,884.867C485.996,884.86 487.009,884.24 487.523,883.249C488.061,882.216 487.944,880.969 487.213,879.915C487.103,879.756 486.959,879.614 486.799,879.504C485.875,878.874 484.797,878.711 483.869,879.041L483.851,876.101L487.083,876.082C487.443,876.079 487.768,875.893 487.954,875.583C488.135,875.281 488.146,874.915 487.982,874.605C487.851,874.357 487.783,874.089 487.781,873.808C487.779,873.341 487.958,872.901 488.288,872.57C488.617,872.24 489.055,872.058 489.523,872.058L489.525,872.058C489.935,872.058 490.345,872.195 490.743,872.464C490.778,872.488 490.809,872.519 490.832,872.552C491.301,873.223 491.389,873.962 491.073,874.583C490.913,874.897 490.928,875.266 491.113,875.567C491.3,875.871 491.624,876.053 491.986,876.053L495.219,876.033L495.238,879.253C495.241,879.811 495.696,880.265 496.252,880.265C496.408,880.265 496.564,880.228 496.711,880.154C497.32,879.84 498.052,879.918 498.725,880.378C498.76,880.402 498.791,880.433 498.814,880.467C499.282,881.14 499.365,881.883 499.042,882.504C498.744,883.079 498.155,883.439 497.497,883.443C497.226,883.443 496.966,883.382 496.729,883.264C496.354,883.072 495.865,883.153 495.564,883.457C495.371,883.651 495.266,883.909 495.268,884.182L495.285,887.118C495.223,887.172 495.166,887.232 495.116,887.302L495.116,887.303L495.115,887.303C495.092,887.335 495.072,887.369 495.053,887.402L491.961,887.421C491.819,887.421 491.694,887.35 491.628,887.23C491.56,887.105 491.565,886.95 491.644,886.826C492.184,885.97 492.119,884.901 491.466,883.961C491.4,883.869 491.316,883.786 491.218,883.718C490.711,883.373 490.18,883.198 489.639,883.198C489.003,883.198 488.406,883.446 487.958,883.897C487.51,884.348 487.266,884.945 487.27,885.582C487.273,886.031 487.402,886.467 487.644,886.842C487.723,886.967 487.73,887.123 487.662,887.25C487.595,887.372 487.468,887.448 487.329,887.449L483.918,887.469L483.903,884.709C484.211,884.814 484.536,884.867 484.88,884.867ZM499.015,886.851L496.542,886.865L496.528,884.54C496.839,884.647 497.167,884.701 497.515,884.701C498.227,884.697 498.896,884.441 499.421,884.001C498.829,884.919 498.685,885.934 499.015,886.851ZM500.254,887.617C500.437,887.315 500.451,886.947 500.29,886.634C500.106,886.274 499.891,885.535 500.515,884.62C500.539,884.585 500.571,884.553 500.604,884.53C501.007,884.25 501.423,884.108 501.841,884.108C502.794,884.108 503.574,884.884 503.581,885.837C503.582,886.112 503.521,886.376 503.399,886.62C503.243,886.93 503.259,887.293 503.443,887.591C503.631,887.896 503.956,888.077 504.319,888.077L507.538,888.058L507.556,891.013C506.567,890.569 505.372,890.708 504.375,891.401C504.215,891.511 504.073,891.654 503.963,891.817C503.243,892.877 503.138,894.124 503.683,895.152C504.204,896.136 505.219,896.747 506.351,896.747C506.781,896.744 507.202,896.65 507.588,896.471L507.605,899.426L504.845,899.442C504.951,899.129 505.005,898.798 505.003,898.465C504.994,896.822 503.649,895.485 502.006,895.485C501.337,895.485 500.662,895.709 500.052,896.131C499.894,896.241 499.751,896.384 499.641,896.545C499.002,897.483 498.84,898.531 499.177,899.477L496.238,899.493L496.218,896.262C496.215,895.703 495.761,895.248 495.205,895.248C495.044,895.248 494.884,895.288 494.742,895.363C494.494,895.494 494.226,895.562 493.934,895.563C493.288,895.563 492.699,895.208 492.396,894.637C492.068,894.02 492.144,893.277 492.602,892.602C492.625,892.567 492.656,892.535 492.688,892.513C493.365,892.04 494.106,891.959 494.717,892.27C495.099,892.467 495.59,892.387 495.895,892.081C496.086,891.888 496.191,891.631 496.189,891.358L496.17,888.126L499.391,888.106C499.747,888.104 500.069,887.921 500.254,887.617ZM482.791,899.744C482.795,900.301 483.251,900.753 483.808,900.753L483.813,900.753L495.514,900.684C495.544,900.683 495.574,900.677 495.604,900.672C495.727,900.724 495.862,900.753 496.003,900.753L499.633,900.731C499.675,900.731 499.717,900.727 499.758,900.718C500.066,900.654 500.332,900.445 500.468,900.16C500.604,899.875 500.599,899.551 500.456,899.27C500.271,898.91 500.056,898.171 500.68,897.255C500.703,897.221 500.735,897.188 500.769,897.166C501.173,896.885 501.589,896.743 502.006,896.743C502.959,896.743 503.74,897.52 503.745,898.473C503.747,898.748 503.686,899.012 503.563,899.255C503.424,899.535 503.422,899.856 503.561,900.138C503.7,900.423 503.969,900.629 504.279,900.691C504.32,900.699 504.36,900.704 504.405,900.703L507.853,900.682C508.125,900.682 508.38,900.574 508.572,900.38C508.763,900.187 508.867,899.93 508.865,899.66L508.844,896.057C508.84,895.492 508.394,895.05 507.828,895.05C507.63,895.05 507.437,895.107 507.268,895.215C506.992,895.393 506.672,895.487 506.332,895.489C505.686,895.489 505.097,895.134 504.794,894.563C504.467,893.945 504.543,893.202 505.003,892.524C505.026,892.49 505.057,892.459 505.091,892.436C505.498,892.153 505.916,892.01 506.333,892.01C506.661,892.01 506.979,892.102 507.256,892.276C507.652,892.526 508.203,892.465 508.527,892.139C508.715,891.95 508.817,891.697 508.816,891.427L508.794,887.809C508.791,887.252 508.335,886.799 507.772,886.799L504.677,886.817C504.786,886.501 504.84,886.17 504.838,885.829C504.828,884.187 503.483,882.85 501.841,882.85C501.179,882.85 500.51,883.069 499.905,883.484C499.999,883.358 500.085,883.226 500.159,883.084C500.696,882.05 500.58,880.804 499.849,879.751C499.74,879.592 499.597,879.45 499.435,879.339C498.513,878.71 497.428,878.546 496.494,878.88L496.476,875.784C496.472,875.227 496.016,874.773 495.453,874.773L492.35,874.792C492.692,873.834 492.523,872.775 491.864,871.832C491.755,871.676 491.614,871.536 491.451,871.425C490.847,871.016 490.181,870.8 489.526,870.8L489.522,870.8C488.718,870.8 487.963,871.113 487.396,871.684C486.829,872.254 486.519,873.011 486.523,873.815C486.526,874.161 486.589,874.504 486.707,874.826L483.602,874.844C483.33,874.846 483.076,874.953 482.885,875.146C482.694,875.339 482.59,875.595 482.592,875.866L482.613,879.496C482.614,879.538 482.618,879.58 482.626,879.62C482.724,880.089 483.141,880.43 483.617,880.43C483.776,880.43 483.93,880.393 484.074,880.319C484.688,880.006 485.416,880.084 486.09,880.543C486.124,880.566 486.156,880.599 486.179,880.632C486.646,881.306 486.729,882.048 486.407,882.669C486.108,883.245 485.52,883.605 484.861,883.609C484.591,883.609 484.331,883.548 484.086,883.425C483.947,883.356 483.799,883.321 483.646,883.321C483.165,883.321 482.747,883.667 482.654,884.144C482.646,884.186 482.642,884.227 482.642,884.269L482.662,887.718C482.663,887.814 482.687,887.903 482.727,887.984C482.726,887.999 482.721,888.014 482.721,888.029L482.739,890.994C481.781,890.652 480.722,890.821 479.779,891.48C479.621,891.59 479.48,891.733 479.372,891.893C478.651,892.957 478.549,894.205 479.098,895.233C479.625,896.219 480.647,896.827 481.762,896.821C482.106,896.818 482.45,896.756 482.773,896.638L482.791,899.744Z" style="fill:rgb(0,145,255);fill-rule:nonzero;"/>
        </g>
    </g>
</svg>
