<?xml version="1.0" encoding="UTF-8" standalone="no"?>
<!DOCTYPE svg PUBLIC "-//W3C//DTD SVG 1.1//EN" "http://www.w3.org/Graphics/SVG/1.1/DTD/svg11.dtd">
<svg width="100%" height="100%" viewBox="0 0 168 168" version="1.1" xmlns="http://www.w3.org/2000/svg" xmlns:xlink="http://www.w3.org/1999/xlink" xml:space="preserve" xmlns:serif="http://www.serif.com/" style="fill-rule:evenodd;clip-rule:evenodd;stroke-linejoin:round;stroke-miterlimit:2;">
    <g transform="matrix(1,0,0,1,-912,-2506)">
        <g transform="matrix(4.16667,0,0,4.16667,0,0)">
            <path d="M237.67,626.255C237.793,626.017 237.791,625.733 237.664,625.496L235.313,621.115L240.22,621.915C240.485,621.957 240.754,621.868 240.939,621.674L244.38,618.084L245.137,622.998C245.178,623.263 245.347,623.491 245.588,623.608L250.065,625.771L245.626,628.009C245.386,628.129 245.221,628.36 245.185,628.626L244.512,633.553L241.011,630.022C240.856,629.866 240.647,629.781 240.432,629.781C240.384,629.781 240.335,629.785 240.288,629.794L235.394,630.676L237.67,626.255ZM233.258,632.256C233.442,632.505 233.752,632.63 234.058,632.573L240.155,631.475L244.517,635.874C244.672,636.03 244.882,636.115 245.096,636.115C245.183,636.115 245.27,636.101 245.354,636.073C245.648,635.975 245.862,635.718 245.903,635.41L246.742,629.272L252.274,626.482C252.552,626.343 252.725,626.058 252.723,625.748C252.72,625.438 252.542,625.155 252.262,625.021L246.683,622.326L245.74,616.203C245.693,615.896 245.476,615.643 245.18,615.55C244.884,615.456 244.561,615.539 244.346,615.763L240.059,620.236L233.944,619.241C233.638,619.191 233.33,619.319 233.149,619.572C232.969,619.824 232.948,620.157 233.095,620.431L236.024,625.89L233.188,631.398C233.046,631.674 233.073,632.006 233.258,632.256Z" style="fill:rgb(0,145,255);fill-rule:nonzero;"/>
            <path d="M256.06,617.45L255.986,618.533L255.171,617.816C255.021,617.684 254.829,617.613 254.633,617.613C254.566,617.613 254.499,617.621 254.433,617.639L253.38,617.903L253.811,616.906C253.917,616.66 253.895,616.377 253.752,616.15L253.174,615.231L254.255,615.332C254.521,615.355 254.784,615.249 254.957,615.042L255.652,614.209L255.891,615.268C255.949,615.529 256.134,615.746 256.381,615.846L257.39,616.25L256.457,616.804C256.226,616.94 256.077,617.182 256.06,617.45ZM255.459,611.896L253.979,613.668L251.68,613.454C251.374,613.425 251.073,613.575 250.911,613.839C250.748,614.103 250.75,614.437 250.915,614.7L252.143,616.655L251.229,618.775C251.106,619.06 251.156,619.39 251.357,619.626C251.559,619.863 251.875,619.965 252.177,619.888L254.417,619.324L256.15,620.849C256.302,620.981 256.493,621.052 256.687,621.052C256.793,621.052 256.898,621.031 257,620.99C257.286,620.872 257.48,620.601 257.502,620.291L257.657,617.987L259.643,616.809C259.91,616.65 260.062,616.354 260.04,616.045C260.015,615.735 259.818,615.467 259.53,615.351L257.387,614.492L256.88,612.239C256.812,611.936 256.578,611.698 256.276,611.626C255.975,611.552 255.658,611.657 255.459,611.896Z" style="fill:rgb(0,145,255);fill-rule:nonzero;"/>
            <path d="M225.174,612.265L226.509,609.799L227.654,612.358C227.764,612.604 227.987,612.778 228.251,612.827L231.009,613.334L228.929,615.215C228.73,615.395 228.632,615.661 228.667,615.927L229.037,618.706L226.606,617.31C226.481,617.237 226.34,617.201 226.2,617.201C226.08,617.201 225.959,617.227 225.848,617.28L223.319,618.491L223.896,615.747C223.952,615.485 223.874,615.212 223.689,615.018L221.757,612.986L224.544,612.688C224.811,612.659 225.047,612.501 225.174,612.265ZM222.213,615.831L221.383,619.771C221.319,620.075 221.433,620.389 221.677,620.58C221.922,620.772 222.253,620.808 222.533,620.675L226.166,618.937L229.657,620.943C229.783,621.016 229.923,621.052 230.063,621.052C230.222,621.052 230.38,621.005 230.517,620.913C230.775,620.74 230.912,620.436 230.872,620.128L230.34,616.137L233.328,613.436C233.558,613.228 233.65,612.907 233.565,612.608C233.48,612.311 233.233,612.086 232.928,612.029L228.968,611.301L227.323,607.626C227.196,607.343 226.919,607.156 226.609,607.144C226.3,607.133 226.009,607.297 225.861,607.57L223.944,611.112L219.94,611.541C219.632,611.574 219.369,611.779 219.262,612.07C219.155,612.362 219.223,612.688 219.437,612.914L222.213,615.831Z" style="fill:rgb(0,145,255);fill-rule:nonzero;"/>
        </g>
    </g>
</svg>
